<svg width="737" height="737" viewBox="0 0 737 737" fill="none" xmlns="http://www.w3.org/2000/svg">
<mask id="path-1-inside-1_319_3730" fill="white">
<path d="M580.897 458.042C596.164 464.479 613.94 457.348 618.58 441.443C629.616 403.605 631.959 363.621 625.26 324.516C618.561 285.411 603.044 248.487 580.042 216.48C570.373 203.025 551.238 202.218 538.983 213.369L403.222 336.905C387.018 351.65 391.571 378.226 411.759 386.737L580.897 458.042Z"/>
</mask>
<path d="M580.897 458.042C596.164 464.479 613.94 457.348 618.58 441.443C629.616 403.605 631.959 363.621 625.26 324.516C618.561 285.411 603.044 248.487 580.042 216.48C570.373 203.025 551.238 202.218 538.983 213.369L403.222 336.905C387.018 351.65 391.571 378.226 411.759 386.737L580.897 458.042Z" fill="url(#paint0_linear_319_3730)" fill-opacity="0.3" stroke="url(#paint1_linear_319_3730)" stroke-opacity="0.3" stroke-width="2" mask="url(#path-1-inside-1_319_3730)"/>
<mask id="path-2-inside-2_319_3730" fill="white">
<path d="M213.172 198.196C202.007 185.954 182.88 184.979 172.002 197.477C147.592 225.523 129.39 258.563 118.752 294.431C108.114 330.299 105.36 367.921 110.533 404.74C112.838 421.148 129.404 430.759 145.438 426.584L320.4 381.025C342.25 375.335 350.221 348.459 335.006 331.777L213.172 198.196Z"/>
</mask>
<path d="M213.172 198.196C202.007 185.954 182.88 184.979 172.002 197.477C147.592 225.523 129.39 258.563 118.752 294.431C108.114 330.299 105.36 367.921 110.533 404.74C112.838 421.148 129.404 430.759 145.438 426.584L320.4 381.025C342.25 375.335 350.221 348.459 335.006 331.777L213.172 198.196Z" fill="url(#paint2_linear_319_3730)" fill-opacity="0.6" stroke="url(#paint3_linear_319_3730)" stroke-opacity="0.3" stroke-width="2" mask="url(#path-2-inside-2_319_3730)"/>
<mask id="path-3-inside-3_319_3730" fill="white">
<path d="M538.219 212.532C550.418 201.321 551.321 182.19 538.783 171.36C520.552 155.613 500.188 142.439 478.253 132.249C456.318 122.059 433.116 114.994 409.324 111.218C392.96 108.622 378.923 121.651 378.224 138.205L370.03 332.252C369.792 337.897 374.351 342.494 379.475 344.874C384.599 347.255 391.053 347.774 395.213 343.951L538.219 212.532Z"/>
</mask>
<path d="M538.219 212.532C550.418 201.321 551.321 182.19 538.783 171.36C520.552 155.613 500.188 142.439 478.253 132.249C456.318 122.059 433.116 114.994 409.324 111.218C392.96 108.622 378.923 121.651 378.224 138.205L370.03 332.252C369.792 337.897 374.351 342.494 379.475 344.874C384.599 347.255 391.053 347.774 395.213 343.951L538.219 212.532Z" fill="url(#paint4_linear_319_3730)" fill-opacity="0.5" stroke="url(#paint5_linear_319_3730)" stroke-opacity="0.3" stroke-width="2" mask="url(#path-3-inside-3_319_3730)"/>
<mask id="path-4-inside-4_319_3730" fill="white">
<path d="M378.017 138.196C378.701 121.642 365.799 107.487 349.276 108.71C348.296 108.782 347.316 108.861 346.337 108.944C329.829 110.354 319.332 126.373 322.629 142.61L362.689 339.886C363.035 341.59 364.698 342.67 366.43 342.532C368.163 342.394 369.634 341.064 369.705 339.327L378.017 138.196Z"/>
</mask>
<path d="M378.017 138.196C378.701 121.642 365.799 107.487 349.276 108.71C348.296 108.782 347.316 108.861 346.337 108.944C329.829 110.354 319.332 126.373 322.629 142.61L362.689 339.886C363.035 341.59 364.698 342.67 366.43 342.532C368.163 342.394 369.634 341.064 369.705 339.327L378.017 138.196Z" fill="url(#paint6_linear_319_3730)" fill-opacity="0.4" stroke="url(#paint7_linear_319_3730)" stroke-opacity="0.3" stroke-width="2" mask="url(#path-4-inside-4_319_3730)"/>
<mask id="path-5-inside-5_319_3730" fill="white">
<path d="M324.365 142.264C321.192 126.002 305.36 115.225 289.57 120.245C262.557 128.833 237.123 141.775 214.279 158.556C200.926 168.365 200.319 187.508 211.597 199.646L345.837 344.111C348.56 347.041 353.121 347.096 356.686 345.282C360.251 343.468 362.891 339.749 362.125 335.823L324.365 142.264Z"/>
</mask>
<path d="M324.365 142.264C321.192 126.002 305.36 115.225 289.57 120.245C262.557 128.833 237.123 141.775 214.279 158.556C200.926 168.365 200.319 187.508 211.597 199.646L345.837 344.111C348.56 347.041 353.121 347.096 356.686 345.282C360.251 343.468 362.891 339.749 362.125 335.823L324.365 142.264Z" fill="url(#paint8_linear_319_3730)" fill-opacity="0.1" stroke="url(#paint9_linear_319_3730)" stroke-opacity="0.3" stroke-width="2" mask="url(#path-5-inside-5_319_3730)"/>
<mask id="path-6-inside-6_319_3730" fill="white">
<path d="M147.349 427.93C131.38 432.345 121.852 448.959 128.072 464.316C144.416 504.667 170.683 540.438 204.635 568.195C246.359 602.308 297.637 622.639 351.401 626.387C405.164 630.135 458.767 617.116 504.821 589.123C542.296 566.345 573.272 534.565 595.057 496.872C603.348 482.527 596.218 464.751 581.015 458.163L379.233 370.727C372.946 368.003 365.916 367.513 359.312 369.339L147.349 427.93Z"/>
</mask>
<path d="M147.349 427.93C131.38 432.345 121.852 448.959 128.072 464.316C144.416 504.667 170.683 540.438 204.635 568.195C246.359 602.308 297.637 622.639 351.401 626.387C405.164 630.135 458.767 617.116 504.821 589.123C542.296 566.345 573.272 534.565 595.057 496.872C603.348 482.527 596.218 464.751 581.015 458.163L379.233 370.727C372.946 368.003 365.916 367.513 359.312 369.339L147.349 427.93Z" fill="url(#paint10_linear_319_3730)" fill-opacity="0.1" stroke="url(#paint11_linear_319_3730)" stroke-opacity="0.3" stroke-width="2" mask="url(#path-6-inside-6_319_3730)"/>
<path d="M313.843 480.04V494H321.243V491.78H316.643V480.04H313.843ZM323.023 494H325.823V482.92H323.023V494ZM324.443 481.6C325.423 481.6 326.163 480.88 326.163 479.96C326.163 479.04 325.423 478.32 324.443 478.32C323.443 478.32 322.723 479.04 322.723 479.96C322.723 480.88 323.443 481.6 324.443 481.6ZM327.869 488.44C327.869 491.84 330.169 494.16 332.969 494.16C334.649 494.16 335.909 493.36 336.589 492.48V499.28H339.409V482.92H336.589V484.36C335.909 483.5 334.689 482.76 333.029 482.76C330.169 482.76 327.869 485.04 327.869 488.44ZM336.589 488.46C336.589 490.6 335.109 491.72 333.649 491.72C332.209 491.72 330.729 490.58 330.729 488.44C330.729 486.3 332.209 485.2 333.649 485.2C335.109 485.2 336.589 486.32 336.589 488.46ZM352.604 482.92H349.784V489.02C349.784 490.8 348.824 491.76 347.304 491.76C345.824 491.76 344.844 490.8 344.844 489.02V482.92H342.044V489.42C342.044 492.46 343.904 494.14 346.484 494.14C347.864 494.14 349.084 493.54 349.784 492.6V494H352.604V482.92ZM355.366 494H358.166V482.92H355.366V494ZM356.786 481.6C357.766 481.6 358.506 480.88 358.506 479.96C358.506 479.04 357.766 478.32 356.786 478.32C355.786 478.32 355.066 479.04 355.066 479.96C355.066 480.88 355.786 481.6 356.786 481.6ZM360.213 488.42C360.213 491.88 362.453 494.18 365.273 494.18C367.013 494.18 368.253 493.38 368.913 492.36V494H371.753V479.2H368.913V484.46C368.153 483.42 366.753 482.74 365.293 482.74C362.453 482.74 360.213 484.96 360.213 488.42ZM368.933 488.46C368.933 490.56 367.533 491.72 365.993 491.72C364.493 491.72 363.073 490.52 363.073 488.42C363.073 486.32 364.493 485.2 365.993 485.2C367.533 485.2 368.933 486.36 368.933 488.46ZM374.487 494H377.287V482.92H374.487V494ZM375.907 481.6C376.887 481.6 377.627 480.88 377.627 479.96C377.627 479.04 376.887 478.32 375.907 478.32C374.907 478.32 374.187 479.04 374.187 479.96C374.187 480.88 374.907 481.6 375.907 481.6ZM380.494 490.56C380.494 493.1 381.914 494 384.034 494H385.794V491.64H384.494C383.614 491.64 383.314 491.32 383.314 490.58V485.22H385.794V482.92H383.314V480.18H380.494V482.92H379.174V485.22H380.494V490.56ZM392.528 490.66L389.668 482.92H386.528L390.968 493.72L388.568 499.24H391.548L398.408 482.92H395.428L392.528 490.66ZM335.887 513.26H338.627C338.727 512.34 339.307 511.46 340.667 511.46C341.947 511.46 342.647 512.14 342.647 513.28C342.647 514.72 341.447 515.18 339.807 515.18H339.227V517.48H339.807C341.887 517.48 342.927 518.08 342.927 519.72C342.927 520.88 342.207 521.76 340.807 521.76C339.307 521.76 338.467 520.86 338.407 519.6H335.687C335.807 522.66 337.987 524.1 340.867 524.1C343.927 524.1 345.607 522.34 345.607 519.96C345.607 517.98 344.627 516.78 343.147 516.32V516.24C344.207 515.88 345.347 514.76 345.347 512.94C345.347 510.78 343.747 509.08 340.747 509.08C337.947 509.08 336.027 510.56 335.887 513.26ZM348.58 509.38V517.94H351.26C351.56 517.04 352.3 516.4 353.46 516.4C355.04 516.4 355.86 517.3 355.86 518.94C355.86 520.48 355.12 521.64 353.48 521.64C352.12 521.64 351.3 520.9 351.06 519.88H348.34C348.58 522.26 350.38 524 353.52 524C356.84 524 358.56 521.88 358.56 518.9C358.56 516.64 357.4 514.08 354 514.08C352.78 514.08 351.68 514.6 351.14 515.26V511.84H357.62V509.38H348.58ZM360.371 513C360.371 515.1 361.731 516.26 363.551 516.26C365.371 516.26 366.731 515.1 366.731 513C366.731 510.92 365.371 509.76 363.551 509.76C361.731 509.76 360.371 510.92 360.371 513ZM363.531 511.44C364.231 511.44 364.671 511.9 364.671 513C364.671 514.1 364.231 514.58 363.531 514.58C362.851 514.58 362.431 514.1 362.431 513C362.431 511.9 362.851 511.44 363.531 511.44ZM362.631 524H365.351L373.211 510H370.471L362.631 524ZM369.151 520.98C369.151 523.1 370.511 524.24 372.331 524.24C374.131 524.24 375.471 523.1 375.471 520.98C375.471 518.88 374.131 517.74 372.331 517.74C370.511 517.74 369.151 518.88 369.151 520.98ZM372.311 519.42C372.991 519.42 373.431 519.88 373.431 520.98C373.431 522.1 372.991 522.56 372.311 522.56C371.611 522.56 371.171 522.1 371.171 520.98C371.171 519.88 371.611 519.42 372.311 519.42Z" fill="white"/>
<path d="M146.307 304.142V300.488H148.305C149.727 300.488 150.357 301.172 150.357 302.324C150.357 303.44 149.727 304.142 148.305 304.142H146.307ZM152.949 302.324C152.949 300.146 151.437 298.436 148.413 298.436H143.787V311H146.307V306.176H148.413C151.653 306.176 152.949 304.232 152.949 302.324ZM154.09 305.978C154.09 309.092 156.106 311.162 158.626 311.162C160.21 311.162 161.344 310.406 161.938 309.542V311H164.476V301.028H161.938V302.45C161.344 301.622 160.246 300.866 158.644 300.866C156.106 300.866 154.09 302.864 154.09 305.978ZM161.938 306.014C161.938 307.904 160.678 308.948 159.292 308.948C157.942 308.948 156.664 307.868 156.664 305.978C156.664 304.088 157.942 303.08 159.292 303.08C160.678 303.08 161.938 304.124 161.938 306.014ZM169.457 306.032C169.457 304.106 170.357 303.53 171.851 303.53H172.517V300.884C171.131 300.884 170.087 301.55 169.457 302.576V301.028H166.937V311H169.457V306.032ZM174.611 307.904C174.611 310.19 175.889 311 177.797 311H179.381V308.876H178.211C177.419 308.876 177.149 308.588 177.149 307.922V303.098H179.381V301.028H177.149V298.562H174.611V301.028H173.423V303.098H174.611V307.904ZM188.177 311H190.697V305.15C190.697 302.396 189.041 300.884 186.719 300.884C185.441 300.884 184.361 301.424 183.713 302.27V301.028H181.193V311H183.713V305.492C183.713 303.89 184.595 303.026 185.963 303.026C187.295 303.026 188.177 303.89 188.177 305.492V311ZM197.378 302.936C198.674 302.936 199.718 303.764 199.754 305.078H195.02C195.218 303.71 196.172 302.936 197.378 302.936ZM202.112 307.868H199.394C199.07 308.534 198.476 309.074 197.396 309.074C196.136 309.074 195.128 308.246 195.002 306.77H202.292C202.346 306.446 202.364 306.122 202.364 305.798C202.364 302.828 200.33 300.866 197.45 300.866C194.498 300.866 192.446 302.864 192.446 306.014C192.446 309.146 194.552 311.162 197.45 311.162C199.916 311.162 201.572 309.704 202.112 307.868ZM206.723 306.032C206.723 304.106 207.623 303.53 209.117 303.53H209.783V300.884C208.397 300.884 207.353 301.55 206.723 302.576V301.028H204.203V311H206.723V306.032ZM219.22 308.156C219.148 304.502 213.622 305.636 213.622 303.818C213.622 303.242 214.108 302.864 215.044 302.864C216.034 302.864 216.646 303.386 216.718 304.16H219.13C218.986 302.18 217.528 300.866 215.116 300.866C212.65 300.866 211.174 302.198 211.174 303.854C211.174 307.508 216.808 306.374 216.808 308.156C216.808 308.732 216.268 309.182 215.278 309.182C214.27 309.182 213.568 308.606 213.478 307.85H210.94C211.048 309.704 212.794 311.162 215.296 311.162C217.726 311.162 219.22 309.866 219.22 308.156ZM221.289 311H223.809V305.492C223.809 303.89 224.691 303.026 226.059 303.026C227.391 303.026 228.273 303.89 228.273 305.492V311H230.793V305.15C230.793 302.396 229.155 300.884 226.905 300.884C225.573 300.884 224.457 301.424 223.809 302.27V297.68H221.289V311ZM233.189 311H235.709V301.028H233.189V311ZM234.467 299.84C235.349 299.84 236.015 299.192 236.015 298.364C236.015 297.536 235.349 296.888 234.467 296.888C233.567 296.888 232.919 297.536 232.919 298.364C232.919 299.192 233.567 299.84 234.467 299.84ZM240.719 302.468V301.028H238.199V315.752H240.719V309.578C241.331 310.388 242.447 311.162 244.013 311.162C246.569 311.162 248.567 309.092 248.567 305.978C248.567 302.864 246.569 300.866 244.013 300.866C242.465 300.866 241.313 301.622 240.719 302.468ZM245.993 305.978C245.993 307.868 244.715 308.948 243.347 308.948C241.997 308.948 240.719 307.904 240.719 306.014C240.719 304.124 241.997 303.08 243.347 303.08C244.715 303.08 245.993 304.088 245.993 305.978ZM263.111 301.352C263.201 299.624 261.977 298.166 259.619 298.166C257.315 298.166 255.929 299.498 255.929 301.208C255.929 302.036 256.181 302.72 256.847 303.53C254.993 304.358 254.075 305.744 254.075 307.364C254.075 309.704 255.911 311.216 258.719 311.216C260.429 311.216 261.815 310.694 262.985 309.65L264.353 311H267.449L264.407 307.994C264.677 307.58 264.929 307.148 265.181 306.662L266.441 304.448H263.813L262.787 306.158C262.751 306.212 262.733 306.266 262.697 306.302L259.529 303.17C258.737 302.342 258.377 301.802 258.377 301.19C258.377 300.578 258.863 300.128 259.547 300.128C260.213 300.128 260.699 300.542 260.663 301.352H263.111ZM258.791 309.128C257.423 309.128 256.559 308.282 256.559 307.22C256.559 306.302 257.117 305.546 258.305 305.024L261.401 308.084C260.663 308.768 259.817 309.128 258.791 309.128ZM175.153 335H177.817L173.299 322.418H170.365L165.847 335H168.493L169.321 332.606H174.325L175.153 335ZM173.641 330.59H170.005L171.823 325.334L173.641 330.59ZM178.858 329.978C178.858 333.092 180.874 335.162 183.412 335.162C184.978 335.162 186.094 334.442 186.688 333.524V335H189.244V321.68H186.688V326.414C186.004 325.478 184.744 324.866 183.43 324.866C180.874 324.866 178.858 326.864 178.858 329.978ZM186.706 330.014C186.706 331.904 185.446 332.948 184.06 332.948C182.71 332.948 181.432 331.868 181.432 329.978C181.432 328.088 182.71 327.08 184.06 327.08C185.446 327.08 186.706 328.124 186.706 330.014ZM190.643 325.028L194.315 335H197.375L201.065 325.028H198.383L195.863 332.678L193.343 325.028H190.643ZM202.48 335H205V325.028H202.48V335ZM203.758 323.84C204.64 323.84 205.306 323.192 205.306 322.364C205.306 321.536 204.64 320.888 203.758 320.888C202.858 320.888 202.21 321.536 202.21 322.364C202.21 323.192 202.858 323.84 203.758 323.84ZM215.23 332.156C215.158 328.502 209.632 329.636 209.632 327.818C209.632 327.242 210.118 326.864 211.054 326.864C212.044 326.864 212.656 327.386 212.728 328.16H215.14C214.996 326.18 213.538 324.866 211.126 324.866C208.66 324.866 207.184 326.198 207.184 327.854C207.184 331.508 212.818 330.374 212.818 332.156C212.818 332.732 212.278 333.182 211.288 333.182C210.28 333.182 209.578 332.606 209.488 331.85H206.95C207.058 333.704 208.804 335.162 211.306 335.162C213.736 335.162 215.23 333.866 215.23 332.156ZM226.929 330.014C226.929 326.864 224.679 324.866 221.799 324.866C218.919 324.866 216.669 326.864 216.669 330.014C216.669 333.146 218.847 335.162 221.727 335.162C224.625 335.162 226.929 333.146 226.929 330.014ZM219.225 330.014C219.225 328.016 220.431 327.062 221.763 327.062C223.095 327.062 224.337 328.016 224.337 330.014C224.337 331.994 223.059 332.966 221.727 332.966C220.377 332.966 219.225 331.994 219.225 330.014ZM231.297 330.032C231.297 328.106 232.197 327.53 233.691 327.53H234.357V324.884C232.971 324.884 231.927 325.55 231.297 326.576V325.028H228.777V335H231.297V330.032ZM243.795 332.156C243.723 328.502 238.197 329.636 238.197 327.818C238.197 327.242 238.683 326.864 239.619 326.864C240.609 326.864 241.221 327.386 241.293 328.16H243.705C243.561 326.18 242.103 324.866 239.691 324.866C237.225 324.866 235.749 326.198 235.749 327.854C235.749 331.508 241.383 330.374 241.383 332.156C241.383 332.732 240.843 333.182 239.853 333.182C238.845 333.182 238.143 332.606 238.053 331.85H235.515C235.623 333.704 237.369 335.162 239.871 335.162C242.301 335.162 243.795 333.866 243.795 332.156ZM187.362 358.82H196.254V356.732H190.944C193.032 354.968 195.966 352.592 195.966 349.55C195.966 347.264 194.544 345.59 191.718 345.59C189.36 345.59 187.434 346.976 187.344 349.982H189.792C189.81 348.596 190.476 347.732 191.682 347.732C192.924 347.732 193.446 348.524 193.446 349.694C193.446 352.106 190.332 354.428 187.362 356.948V358.82ZM197.842 352.268C197.842 356.102 198.994 358.964 202.702 358.964C206.41 358.964 207.562 356.102 207.562 352.268C207.562 348.47 206.41 345.626 202.702 345.626C198.994 345.626 197.842 348.47 197.842 352.268ZM205.078 352.268C205.078 354.608 204.826 356.624 202.702 356.624C200.578 356.624 200.326 354.608 200.326 352.268C200.326 350.018 200.578 347.966 202.702 347.966C204.826 347.966 205.078 350.018 205.078 352.268ZM209.19 349.1C209.19 350.99 210.414 352.034 212.052 352.034C213.69 352.034 214.914 350.99 214.914 349.1C214.914 347.228 213.69 346.184 212.052 346.184C210.414 346.184 209.19 347.228 209.19 349.1ZM212.034 347.696C212.664 347.696 213.06 348.11 213.06 349.1C213.06 350.09 212.664 350.522 212.034 350.522C211.422 350.522 211.044 350.09 211.044 349.1C211.044 348.11 211.422 347.696 212.034 347.696ZM211.224 359H213.672L220.746 346.4H218.28L211.224 359ZM217.092 356.282C217.092 358.19 218.316 359.216 219.954 359.216C221.574 359.216 222.78 358.19 222.78 356.282C222.78 354.392 221.574 353.366 219.954 353.366C218.316 353.366 217.092 354.392 217.092 356.282ZM219.936 354.878C220.548 354.878 220.944 355.292 220.944 356.282C220.944 357.29 220.548 357.704 219.936 357.704C219.306 357.704 218.91 357.29 218.91 356.282C218.91 355.292 219.306 354.878 219.936 354.878Z" fill="white"/>
<path d="M467.768 312.436H463.376V325H467.768C471.782 325 474.392 322.534 474.392 318.736C474.392 314.92 471.782 312.436 467.768 312.436ZM465.896 322.858V314.56H467.678C470.324 314.56 471.818 316.126 471.818 318.736C471.818 321.346 470.324 322.858 467.678 322.858H465.896ZM480.562 316.936C481.858 316.936 482.902 317.764 482.938 319.078H478.204C478.402 317.71 479.356 316.936 480.562 316.936ZM485.296 321.868H482.578C482.254 322.534 481.66 323.074 480.58 323.074C479.32 323.074 478.312 322.246 478.186 320.77H485.476C485.53 320.446 485.548 320.122 485.548 319.798C485.548 316.828 483.514 314.866 480.634 314.866C477.682 314.866 475.63 316.864 475.63 320.014C475.63 323.146 477.736 325.162 480.634 325.162C483.1 325.162 484.756 323.704 485.296 321.868ZM486.326 315.028L489.998 325H493.058L496.748 315.028H494.066L491.546 322.678L489.026 315.028H486.326ZM502.447 316.936C503.743 316.936 504.787 317.764 504.823 319.078H500.089C500.287 317.71 501.241 316.936 502.447 316.936ZM507.181 321.868H504.463C504.139 322.534 503.545 323.074 502.465 323.074C501.205 323.074 500.197 322.246 500.071 320.77H507.361C507.415 320.446 507.433 320.122 507.433 319.798C507.433 316.828 505.399 314.866 502.519 314.866C499.567 314.866 497.515 316.864 497.515 320.014C497.515 323.146 499.621 325.162 502.519 325.162C504.985 325.162 506.641 323.704 507.181 321.868ZM509.272 325H511.792V311.68H509.272V325ZM523.912 320.014C523.912 316.864 521.662 314.866 518.782 314.866C515.902 314.866 513.652 316.864 513.652 320.014C513.652 323.146 515.83 325.162 518.71 325.162C521.608 325.162 523.912 323.146 523.912 320.014ZM516.208 320.014C516.208 318.016 517.414 317.062 518.746 317.062C520.078 317.062 521.32 318.016 521.32 320.014C521.32 321.994 520.042 322.966 518.71 322.966C517.36 322.966 516.208 321.994 516.208 320.014ZM528.281 316.468V315.028H525.761V329.752H528.281V323.578C528.893 324.388 530.009 325.162 531.575 325.162C534.131 325.162 536.129 323.092 536.129 319.978C536.129 316.864 534.131 314.866 531.575 314.866C530.027 314.866 528.875 315.622 528.281 316.468ZM533.555 319.978C533.555 321.868 532.277 322.948 530.909 322.948C529.559 322.948 528.281 321.904 528.281 320.014C528.281 318.124 529.559 317.08 530.909 317.08C532.277 317.08 533.555 318.088 533.555 319.978ZM551.91 325H554.43V319.15C554.43 316.396 552.738 314.884 550.344 314.884C548.886 314.884 547.572 315.658 546.924 316.792C546.24 315.55 544.962 314.884 543.414 314.884C542.172 314.884 541.11 315.406 540.48 316.234V315.028H537.96V325H540.48V319.492C540.48 317.908 541.362 317.08 542.73 317.08C544.062 317.08 544.944 317.908 544.944 319.492V325H547.464V319.492C547.464 317.908 548.346 317.08 549.696 317.08C551.028 317.08 551.91 317.908 551.91 319.492V325ZM561.105 316.936C562.401 316.936 563.445 317.764 563.481 319.078H558.747C558.945 317.71 559.899 316.936 561.105 316.936ZM565.839 321.868H563.121C562.797 322.534 562.203 323.074 561.123 323.074C559.863 323.074 558.855 322.246 558.729 320.77H566.019C566.073 320.446 566.091 320.122 566.091 319.798C566.091 316.828 564.057 314.866 561.177 314.866C558.225 314.866 556.173 316.864 556.173 320.014C556.173 323.146 558.279 325.162 561.177 325.162C563.643 325.162 565.299 323.704 565.839 321.868ZM574.914 325H577.434V319.15C577.434 316.396 575.778 314.884 573.456 314.884C572.178 314.884 571.098 315.424 570.45 316.27V315.028H567.93V325H570.45V319.492C570.45 317.89 571.332 317.026 572.7 317.026C574.032 317.026 574.914 317.89 574.914 319.492V325ZM580.227 321.904C580.227 324.19 581.505 325 583.413 325H584.997V322.876H583.827C583.035 322.876 582.765 322.588 582.765 321.922V317.098H584.997V315.028H582.765V312.562H580.227V315.028H579.039V317.098H580.227V321.904ZM599.522 315.352C599.612 313.624 598.388 312.166 596.03 312.166C593.726 312.166 592.34 313.498 592.34 315.208C592.34 316.036 592.592 316.72 593.258 317.53C591.404 318.358 590.486 319.744 590.486 321.364C590.486 323.704 592.322 325.216 595.13 325.216C596.84 325.216 598.226 324.694 599.396 323.65L600.764 325H603.86L600.818 321.994C601.088 321.58 601.34 321.148 601.592 320.662L602.852 318.448H600.224L599.198 320.158C599.162 320.212 599.144 320.266 599.108 320.302L595.94 317.17C595.148 316.342 594.788 315.802 594.788 315.19C594.788 314.578 595.274 314.128 595.958 314.128C596.624 314.128 597.11 314.542 597.074 315.352H599.522ZM595.202 323.128C593.834 323.128 592.97 322.282 592.97 321.22C592.97 320.302 593.528 319.546 594.716 319.024L597.812 322.084C597.074 322.768 596.228 323.128 595.202 323.128ZM487.555 349H490.075V340.828L493.459 349H495.367L498.733 340.828V349H501.253V336.436H498.409L494.413 345.778L490.417 336.436H487.555V349ZM503.096 343.978C503.096 347.092 505.112 349.162 507.632 349.162C509.216 349.162 510.35 348.406 510.944 347.542V349H513.482V339.028H510.944V340.45C510.35 339.622 509.252 338.866 507.65 338.866C505.112 338.866 503.096 340.864 503.096 343.978ZM510.944 344.014C510.944 345.904 509.684 346.948 508.298 346.948C506.948 346.948 505.67 345.868 505.67 343.978C505.67 342.088 506.948 341.08 508.298 341.08C509.684 341.08 510.944 342.124 510.944 344.014ZM518.463 344.032C518.463 342.106 519.363 341.53 520.857 341.53H521.523V338.884C520.137 338.884 519.093 339.55 518.463 340.576V339.028H515.943V349H518.463V344.032ZM523.221 349H525.741V344.752L529.125 349H532.401L527.973 344.032L532.365 339.028H529.089L525.741 343.258V335.68H523.221V349ZM538.016 340.936C539.312 340.936 540.356 341.764 540.392 343.078H535.658C535.856 341.71 536.81 340.936 538.016 340.936ZM542.75 345.868H540.032C539.708 346.534 539.114 347.074 538.034 347.074C536.774 347.074 535.766 346.246 535.64 344.77H542.93C542.984 344.446 543.002 344.122 543.002 343.798C543.002 340.828 540.968 338.866 538.088 338.866C535.136 338.866 533.084 340.864 533.084 344.014C533.084 347.146 535.19 349.162 538.088 349.162C540.554 349.162 542.21 347.704 542.75 345.868ZM545.238 345.904C545.238 348.19 546.516 349 548.424 349H550.008V346.876H548.838C548.046 346.876 547.776 346.588 547.776 345.922V341.098H550.008V339.028H547.776V336.562H545.238V339.028H544.05V341.098H545.238V345.904ZM551.82 349H554.34V339.028H551.82V349ZM553.098 337.84C553.98 337.84 554.646 337.192 554.646 336.364C554.646 335.536 553.98 334.888 553.098 334.888C552.198 334.888 551.55 335.536 551.55 336.364C551.55 337.192 552.198 337.84 553.098 337.84ZM563.814 349H566.334V343.15C566.334 340.396 564.678 338.884 562.356 338.884C561.078 338.884 559.998 339.424 559.35 340.27V339.028H556.83V349H559.35V343.492C559.35 341.89 560.232 341.026 561.6 341.026C562.932 341.026 563.814 341.89 563.814 343.492V349ZM568.082 343.978C568.082 347.092 570.098 349.162 572.636 349.162C574.202 349.162 575.336 348.388 575.93 347.524V349.072C575.93 350.926 574.85 351.718 573.464 351.718C572.204 351.718 571.268 351.124 571.016 350.224H568.514C568.766 352.51 570.728 353.914 573.536 353.914C576.812 353.914 578.468 351.772 578.468 349.072V339.028H575.93V340.45C575.336 339.586 574.202 338.866 572.636 338.866C570.098 338.866 568.082 340.864 568.082 343.978ZM575.93 344.014C575.93 345.904 574.67 346.948 573.284 346.948C571.934 346.948 570.656 345.868 570.656 343.978C570.656 342.088 571.934 341.08 573.284 341.08C574.67 341.08 575.93 342.124 575.93 344.014ZM515.388 372.82H524.28V370.732H518.97C521.058 368.968 523.992 366.592 523.992 363.55C523.992 361.264 522.57 359.59 519.744 359.59C517.386 359.59 515.46 360.976 515.37 363.982H517.818C517.836 362.596 518.502 361.732 519.708 361.732C520.95 361.732 521.472 362.524 521.472 363.694C521.472 366.106 518.358 368.428 515.388 370.948V372.82ZM526.552 359.842V367.546H528.964C529.234 366.736 529.9 366.16 530.944 366.16C532.366 366.16 533.104 366.97 533.104 368.446C533.104 369.832 532.438 370.876 530.962 370.876C529.738 370.876 529 370.21 528.784 369.292H526.336C526.552 371.434 528.172 373 530.998 373C533.986 373 535.534 371.092 535.534 368.41C535.534 366.376 534.49 364.072 531.43 364.072C530.332 364.072 529.342 364.54 528.856 365.134V362.056H534.688V359.842H526.552ZM537.164 363.1C537.164 364.99 538.388 366.034 540.026 366.034C541.664 366.034 542.888 364.99 542.888 363.1C542.888 361.228 541.664 360.184 540.026 360.184C538.388 360.184 537.164 361.228 537.164 363.1ZM540.008 361.696C540.638 361.696 541.034 362.11 541.034 363.1C541.034 364.09 540.638 364.522 540.008 364.522C539.396 364.522 539.018 364.09 539.018 363.1C539.018 362.11 539.396 361.696 540.008 361.696ZM539.198 373H541.646L548.72 360.4H546.254L539.198 373ZM545.066 370.282C545.066 372.19 546.29 373.216 547.928 373.216C549.548 373.216 550.754 372.19 550.754 370.282C550.754 368.392 549.548 367.366 547.928 367.366C546.29 367.366 545.066 368.392 545.066 370.282ZM547.91 368.878C548.522 368.878 548.918 369.292 548.918 370.282C548.918 371.29 548.522 371.704 547.91 371.704C547.28 371.704 546.884 371.29 546.884 370.282C546.884 369.292 547.28 368.878 547.91 368.878Z" fill="white"/>
<path d="M401.261 180.81H403.865V189H405.825V180.81H408.429V179.228H401.261V180.81ZM413.191 182.728C414.199 182.728 415.011 183.372 415.039 184.394H411.357C411.511 183.33 412.253 182.728 413.191 182.728ZM416.873 186.564H414.759C414.507 187.082 414.045 187.502 413.205 187.502C412.225 187.502 411.441 186.858 411.343 185.71H417.013C417.055 185.458 417.069 185.206 417.069 184.954C417.069 182.644 415.487 181.118 413.247 181.118C410.951 181.118 409.355 182.672 409.355 185.122C409.355 187.558 410.993 189.126 413.247 189.126C415.165 189.126 416.453 187.992 416.873 186.564ZM417.995 185.094C417.995 187.516 419.563 189.126 421.523 189.126C422.755 189.126 423.637 188.538 424.099 187.866V189H426.073V181.244H424.099V182.35C423.637 181.706 422.783 181.118 421.537 181.118C419.563 181.118 417.995 182.672 417.995 185.094ZM424.099 185.122C424.099 186.592 423.119 187.404 422.041 187.404C420.991 187.404 419.997 186.564 419.997 185.094C419.997 183.624 420.991 182.84 422.041 182.84C423.119 182.84 424.099 183.652 424.099 185.122ZM438.837 189H440.797V184.45C440.797 182.308 439.481 181.132 437.619 181.132C436.485 181.132 435.463 181.734 434.959 182.616C434.427 181.65 433.433 181.132 432.229 181.132C431.263 181.132 430.437 181.538 429.947 182.182V181.244H427.987V189H429.947V184.716C429.947 183.484 430.633 182.84 431.697 182.84C432.733 182.84 433.419 183.484 433.419 184.716V189H435.379V184.716C435.379 183.484 436.065 182.84 437.115 182.84C438.151 182.84 438.837 183.484 438.837 184.716V189ZM452.629 189H454.701L451.187 179.214H448.905L445.391 189H447.449L448.093 187.138H451.985L452.629 189ZM451.453 185.57H448.625L450.039 181.482L451.453 185.57ZM456.015 189H457.975V178.64H456.015V189ZM459.911 189H461.871V178.64H459.911V189ZM471.298 185.122C471.298 182.672 469.548 181.118 467.308 181.118C465.068 181.118 463.318 182.672 463.318 185.122C463.318 187.558 465.012 189.126 467.252 189.126C469.506 189.126 471.298 187.558 471.298 185.122ZM465.306 185.122C465.306 183.568 466.244 182.826 467.28 182.826C468.316 182.826 469.282 183.568 469.282 185.122C469.282 186.662 468.288 187.418 467.252 187.418C466.202 187.418 465.306 186.662 465.306 185.122ZM472.232 185.122C472.232 187.558 473.828 189.126 476.068 189.126C478 189.126 479.302 188.034 479.722 186.382H477.608C477.37 187.082 476.866 187.446 476.054 187.446C474.962 187.446 474.234 186.634 474.234 185.122C474.234 183.61 474.962 182.784 476.054 182.784C476.866 182.784 477.384 183.204 477.608 183.862H479.722C479.302 182.126 478 181.118 476.068 181.118C473.828 181.118 472.232 182.686 472.232 185.122ZM480.653 185.094C480.653 187.516 482.221 189.126 484.181 189.126C485.413 189.126 486.295 188.538 486.757 187.866V189H488.731V181.244H486.757V182.35C486.295 181.706 485.441 181.118 484.195 181.118C482.221 181.118 480.653 182.672 480.653 185.094ZM486.757 185.122C486.757 186.592 485.777 187.404 484.699 187.404C483.649 187.404 482.655 186.564 482.655 185.094C482.655 183.624 483.649 182.84 484.699 182.84C485.777 182.84 486.757 183.652 486.757 185.122ZM490.954 186.592C490.954 188.37 491.948 189 493.432 189H494.664V187.348H493.754C493.138 187.348 492.928 187.124 492.928 186.606V182.854H494.664V181.244H492.928V179.326H490.954V181.244H490.03V182.854H490.954V186.592ZM496.073 189H498.033V181.244H496.073V189ZM497.067 180.32C497.753 180.32 498.271 179.816 498.271 179.172C498.271 178.528 497.753 178.024 497.067 178.024C496.367 178.024 495.863 178.528 495.863 179.172C495.863 179.816 496.367 180.32 497.067 180.32ZM507.46 185.122C507.46 182.672 505.71 181.118 503.47 181.118C501.23 181.118 499.48 182.672 499.48 185.122C499.48 187.558 501.174 189.126 503.414 189.126C505.668 189.126 507.46 187.558 507.46 185.122ZM501.468 185.122C501.468 183.568 502.406 182.826 503.442 182.826C504.478 182.826 505.444 183.568 505.444 185.122C505.444 186.662 504.45 187.418 503.414 187.418C502.364 187.418 501.468 186.662 501.468 185.122ZM514.33 189H516.29V184.45C516.29 182.308 515.002 181.132 513.196 181.132C512.202 181.132 511.362 181.552 510.858 182.21V181.244H508.898V189H510.858V184.716C510.858 183.47 511.544 182.798 512.608 182.798C513.644 182.798 514.33 183.47 514.33 184.716V189ZM447.997 209H450.013V198.794H446.639V200.6H447.997V209ZM451.949 203.764C451.949 206.746 452.845 208.972 455.729 208.972C458.613 208.972 459.509 206.746 459.509 203.764C459.509 200.81 458.613 198.598 455.729 198.598C452.845 198.598 451.949 200.81 451.949 203.764ZM457.577 203.764C457.577 205.584 457.381 207.152 455.729 207.152C454.077 207.152 453.881 205.584 453.881 203.764C453.881 202.014 454.077 200.418 455.729 200.418C457.381 200.418 457.577 202.014 457.577 203.764ZM460.776 201.3C460.776 202.77 461.728 203.582 463.002 203.582C464.276 203.582 465.228 202.77 465.228 201.3C465.228 199.844 464.276 199.032 463.002 199.032C461.728 199.032 460.776 199.844 460.776 201.3ZM462.988 200.208C463.478 200.208 463.786 200.53 463.786 201.3C463.786 202.07 463.478 202.406 462.988 202.406C462.512 202.406 462.218 202.07 462.218 201.3C462.218 200.53 462.512 200.208 462.988 200.208ZM462.358 209H464.262L469.764 199.2H467.846L462.358 209ZM466.922 206.886C466.922 208.37 467.874 209.168 469.148 209.168C470.408 209.168 471.346 208.37 471.346 206.886C471.346 205.416 470.408 204.618 469.148 204.618C467.874 204.618 466.922 205.416 466.922 206.886ZM469.134 205.794C469.61 205.794 469.918 206.116 469.918 206.886C469.918 207.67 469.61 207.992 469.134 207.992C468.644 207.992 468.336 207.67 468.336 206.886C468.336 206.116 468.644 205.794 469.134 205.794Z" fill="white"/>
<path d="M255.366 182.266C255.366 183.148 254.876 183.722 253.784 183.722H252.146V180.852H253.784C254.876 180.852 255.366 181.398 255.366 182.266ZM250.186 179.228V189H252.146V185.192H253.07L255.226 189H257.494L255.156 185.038C256.724 184.618 257.382 183.414 257.382 182.224C257.382 180.586 256.206 179.228 253.854 179.228H250.186ZM262.486 182.728C263.494 182.728 264.306 183.372 264.334 184.394H260.652C260.806 183.33 261.548 182.728 262.486 182.728ZM266.168 186.564H264.054C263.802 187.082 263.34 187.502 262.5 187.502C261.52 187.502 260.736 186.858 260.638 185.71H266.308C266.35 185.458 266.364 185.206 266.364 184.954C266.364 182.644 264.782 181.118 262.542 181.118C260.246 181.118 258.65 182.672 258.65 185.122C258.65 187.558 260.288 189.126 262.542 189.126C264.46 189.126 265.748 187.992 266.168 186.564ZM273.815 186.788C273.759 183.946 269.461 184.828 269.461 183.414C269.461 182.966 269.839 182.672 270.567 182.672C271.337 182.672 271.813 183.078 271.869 183.68H273.745C273.633 182.14 272.499 181.118 270.623 181.118C268.705 181.118 267.557 182.154 267.557 183.442C267.557 186.284 271.939 185.402 271.939 186.788C271.939 187.236 271.519 187.586 270.749 187.586C269.965 187.586 269.419 187.138 269.349 186.55H267.375C267.459 187.992 268.817 189.126 270.763 189.126C272.653 189.126 273.815 188.118 273.815 186.788ZM278.756 182.728C279.764 182.728 280.576 183.372 280.604 184.394H276.922C277.076 183.33 277.818 182.728 278.756 182.728ZM282.438 186.564H280.324C280.072 187.082 279.61 187.502 278.77 187.502C277.79 187.502 277.006 186.858 276.908 185.71H282.578C282.62 185.458 282.634 185.206 282.634 184.954C282.634 182.644 281.052 181.118 278.812 181.118C276.516 181.118 274.92 182.672 274.92 185.122C274.92 187.558 276.558 189.126 278.812 189.126C280.73 189.126 282.018 187.992 282.438 186.564ZM286.025 185.136C286.025 183.638 286.725 183.19 287.887 183.19H288.405V181.132C287.327 181.132 286.515 181.65 286.025 182.448V181.244H284.065V189H286.025V185.136ZM288.899 181.244L291.755 189H294.135L297.005 181.244H294.919L292.959 187.194L290.999 181.244H288.899ZM301.438 182.728C302.446 182.728 303.258 183.372 303.286 184.394H299.604C299.758 183.33 300.5 182.728 301.438 182.728ZM305.12 186.564H303.006C302.754 187.082 302.292 187.502 301.452 187.502C300.472 187.502 299.688 186.858 299.59 185.71H305.26C305.302 185.458 305.316 185.206 305.316 184.954C305.316 182.644 303.734 181.118 301.494 181.118C299.198 181.118 297.602 182.672 297.602 185.122C297.602 187.558 299.24 189.126 301.494 189.126C303.412 189.126 304.7 187.992 305.12 186.564ZM268.351 198.822V200.502H273.139L269.387 209H271.375L275.099 200.278V198.822H268.351ZM276.049 201.3C276.049 202.77 277.001 203.582 278.275 203.582C279.549 203.582 280.501 202.77 280.501 201.3C280.501 199.844 279.549 199.032 278.275 199.032C277.001 199.032 276.049 199.844 276.049 201.3ZM278.261 200.208C278.751 200.208 279.059 200.53 279.059 201.3C279.059 202.07 278.751 202.406 278.261 202.406C277.785 202.406 277.491 202.07 277.491 201.3C277.491 200.53 277.785 200.208 278.261 200.208ZM277.631 209H279.535L285.037 199.2H283.119L277.631 209ZM282.195 206.886C282.195 208.37 283.147 209.168 284.421 209.168C285.681 209.168 286.619 208.37 286.619 206.886C286.619 205.416 285.681 204.618 284.421 204.618C283.147 204.618 282.195 205.416 282.195 206.886ZM284.407 205.794C284.883 205.794 285.191 206.116 285.191 206.886C285.191 207.67 284.883 207.992 284.407 207.992C283.917 207.992 283.609 207.67 283.609 206.886C283.609 206.116 283.917 205.794 284.407 205.794Z" fill="white"/>
<path d="M332.031 103H334.103L330.589 93.214H328.307L324.793 103H326.851L327.495 101.138H331.387L332.031 103ZM330.855 99.57H328.027L329.441 95.482L330.855 99.57ZM335.416 103H337.376V95.244H335.416V103ZM336.41 94.32C337.096 94.32 337.614 93.816 337.614 93.172C337.614 92.528 337.096 92.024 336.41 92.024C335.71 92.024 335.206 92.528 335.206 93.172C335.206 93.816 335.71 94.32 336.41 94.32ZM341.273 99.136C341.273 97.638 341.973 97.19 343.135 97.19H343.653V95.132C342.575 95.132 341.763 95.65 341.273 96.448V95.244H339.313V103H341.273V99.136ZM344.469 99.094C344.469 101.516 346.037 103.126 348.011 103.126C349.229 103.126 350.097 102.566 350.559 101.852V103H352.547V92.64H350.559V96.322C350.027 95.594 349.047 95.118 348.025 95.118C346.037 95.118 344.469 96.672 344.469 99.094ZM350.573 99.122C350.573 100.592 349.593 101.404 348.515 101.404C347.465 101.404 346.471 100.564 346.471 99.094C346.471 97.624 347.465 96.84 348.515 96.84C349.593 96.84 350.573 97.652 350.573 99.122ZM356.421 99.136C356.421 97.638 357.121 97.19 358.283 97.19H358.801V95.132C357.723 95.132 356.911 95.65 356.421 96.448V95.244H354.461V103H356.421V99.136ZM367.611 99.122C367.611 96.672 365.861 95.118 363.621 95.118C361.381 95.118 359.631 96.672 359.631 99.122C359.631 101.558 361.325 103.126 363.565 103.126C365.819 103.126 367.611 101.558 367.611 99.122ZM361.619 99.122C361.619 97.568 362.557 96.826 363.593 96.826C364.629 96.826 365.595 97.568 365.595 99.122C365.595 100.662 364.601 101.418 363.565 101.418C362.515 101.418 361.619 100.662 361.619 99.122ZM371.009 96.364V95.244H369.049V106.696H371.009V101.894C371.485 102.524 372.353 103.126 373.571 103.126C375.559 103.126 377.113 101.516 377.113 99.094C377.113 96.672 375.559 95.118 373.571 95.118C372.367 95.118 371.471 95.706 371.009 96.364ZM375.111 99.094C375.111 100.564 374.117 101.404 373.053 101.404C372.003 101.404 371.009 100.592 371.009 99.122C371.009 97.652 372.003 96.84 373.053 96.84C374.117 96.84 375.111 97.624 375.111 99.094ZM341.851 112.822V114.502H346.639L342.887 123H344.875L348.599 114.278V112.822H341.851ZM349.549 115.3C349.549 116.77 350.501 117.582 351.775 117.582C353.049 117.582 354.001 116.77 354.001 115.3C354.001 113.844 353.049 113.032 351.775 113.032C350.501 113.032 349.549 113.844 349.549 115.3ZM351.761 114.208C352.251 114.208 352.559 114.53 352.559 115.3C352.559 116.07 352.251 116.406 351.761 116.406C351.285 116.406 350.991 116.07 350.991 115.3C350.991 114.53 351.285 114.208 351.761 114.208ZM351.131 123H353.035L358.537 113.2H356.619L351.131 123ZM355.695 120.886C355.695 122.37 356.647 123.168 357.921 123.168C359.181 123.168 360.119 122.37 360.119 120.886C360.119 119.416 359.181 118.618 357.921 118.618C356.647 118.618 355.695 119.416 355.695 120.886ZM357.907 119.794C358.383 119.794 358.691 120.116 358.691 120.886C358.691 121.67 358.383 121.992 357.907 121.992C357.417 121.992 357.109 121.67 357.109 120.886C357.109 120.116 357.417 119.794 357.907 119.794Z" fill="white"/>
<defs>
<linearGradient id="paint0_linear_319_3730" x1="561.404" y1="-87.3112" x2="267.935" y2="608.807" gradientUnits="userSpaceOnUse">
<stop stop-color="#00F5FF"/>
<stop offset="1" stop-color="#E002F3"/>
</linearGradient>
<linearGradient id="paint1_linear_319_3730" x1="561.404" y1="-87.3112" x2="267.935" y2="608.807" gradientUnits="userSpaceOnUse">
<stop stop-color="#00F5FF"/>
<stop offset="1" stop-color="#E002F3"/>
</linearGradient>
<linearGradient id="paint2_linear_319_3730" x1="2.34535" y1="701.527" x2="560.508" y2="192.45" gradientUnits="userSpaceOnUse">
<stop stop-color="#00F5FF"/>
<stop offset="1" stop-color="#E002F3"/>
</linearGradient>
<linearGradient id="paint3_linear_319_3730" x1="2.34535" y1="701.527" x2="560.508" y2="192.45" gradientUnits="userSpaceOnUse">
<stop stop-color="#00F5FF"/>
<stop offset="1" stop-color="#E002F3"/>
</linearGradient>
<linearGradient id="paint4_linear_319_3730" x1="34.0978" y1="3.6007" x2="545.271" y2="559.844" gradientUnits="userSpaceOnUse">
<stop stop-color="#00F5FF"/>
<stop offset="1" stop-color="#E002F3"/>
</linearGradient>
<linearGradient id="paint5_linear_319_3730" x1="34.0978" y1="3.6007" x2="545.271" y2="559.844" gradientUnits="userSpaceOnUse">
<stop stop-color="#00F5FF"/>
<stop offset="1" stop-color="#E002F3"/>
</linearGradient>
<linearGradient id="paint6_linear_319_3730" x1="-126" y1="347.38" x2="628.806" y2="378.571" gradientUnits="userSpaceOnUse">
<stop stop-color="#00F5FF"/>
<stop offset="1" stop-color="#E002F3"/>
</linearGradient>
<linearGradient id="paint7_linear_319_3730" x1="-126" y1="347.38" x2="628.806" y2="378.571" gradientUnits="userSpaceOnUse">
<stop stop-color="#00F5FF"/>
<stop offset="1" stop-color="#E002F3"/>
</linearGradient>
<linearGradient id="paint8_linear_319_3730" x1="-117.423" y1="462.598" x2="624.049" y2="317.948" gradientUnits="userSpaceOnUse">
<stop stop-color="#00F5FF"/>
<stop offset="1" stop-color="#E002F3"/>
</linearGradient>
<linearGradient id="paint9_linear_319_3730" x1="-117.423" y1="462.598" x2="624.049" y2="317.948" gradientUnits="userSpaceOnUse">
<stop stop-color="#00F5FF"/>
<stop offset="1" stop-color="#E002F3"/>
</linearGradient>
<linearGradient id="paint10_linear_319_3730" x1="799.758" y1="611.199" x2="142.559" y2="238.648" gradientUnits="userSpaceOnUse">
<stop stop-color="#00F5FF"/>
<stop offset="1" stop-color="#E002F3"/>
</linearGradient>
<linearGradient id="paint11_linear_319_3730" x1="799.758" y1="611.199" x2="142.559" y2="238.648" gradientUnits="userSpaceOnUse">
<stop stop-color="#00F5FF"/>
<stop offset="1" stop-color="#E002F3"/>
</linearGradient>
</defs>
</svg>
