<svg width="60" height="60" viewBox="0 0 60 60" fill="none" xmlns="http://www.w3.org/2000/svg">
<path fill-rule="evenodd" clip-rule="evenodd" d="M0.000387254 7.14197C0.000387254 3.21016 3.21055 0 7.14235 0H49.9949C53.9272 0 57.1373 3.21016 57.1373 7.14197V9.99914C57.1373 12.3485 55.2014 14.2844 52.8521 14.2844H45.7096V24.2831C45.7369 26.2148 42.8257 26.2148 42.8529 24.2831V7.14197C42.8529 5.52923 43.412 4.05523 44.3202 2.85669H7.14235C4.74382 2.85669 2.85708 4.74343 2.85708 7.14197V12.8558C2.88438 14.7875 -0.0268745 14.7875 0.000387254 12.8558V7.14197ZM54.2804 7.14197C54.2804 4.74343 52.3941 2.85669 49.9951 2.85669C47.5966 2.85669 45.7098 4.74343 45.7098 7.14197V11.4272H52.8523C53.6682 11.4272 54.2804 10.8151 54.2804 9.99914V7.14197ZM8.53005 12.9309C8.48977 12.1537 9.0781 11.487 9.85432 11.4301C9.90358 11.4277 9.95332 11.4277 10.0021 11.4301H24.2806C25.0578 11.4468 25.6786 12.0815 25.6786 12.8586C25.6786 13.6358 25.0578 14.27 24.2806 14.2867H10.0021C9.22449 14.3107 8.57022 13.7081 8.53005 12.9309ZM28.5289 12.9256C28.4916 12.1484 29.0822 11.4841 29.858 11.4301H29.8581C29.904 11.4281 29.9494 11.4281 29.9949 11.4301H35.7116C36.4883 11.4468 37.1095 12.0815 37.1095 12.8586C37.1095 13.6358 36.4883 14.27 35.7116 14.2867H29.9949C29.2172 14.3073 28.5662 13.7023 28.5289 12.9256ZM0.000142516 18.5696C-0.0108768 17.7814 0.618496 17.1324 1.4062 17.1214C2.21165 17.1089 2.86783 17.7642 2.85683 18.5696V55.7082C2.85683 56.5242 3.46949 57.1368 4.28542 57.1368H29.9971C31.9279 57.11 31.9279 60.0203 29.9971 59.9935H4.28542C1.93611 59.9935 0.000142516 58.0575 0.000142516 55.7082V18.5696ZM9.85385 17.1467L9.85958 17.1439C9.90693 17.1424 9.95428 17.1434 10.0016 17.1467H17.1411C17.5257 17.1381 17.8973 17.2845 18.1723 17.5533C18.4468 17.8221 18.6018 18.1903 18.6018 18.5748C18.6018 18.9594 18.4468 19.3276 18.1723 19.5964C17.8973 19.8652 17.5257 20.012 17.1411 20.0034H10.0016C9.22441 20.0264 8.57109 19.4243 8.53092 18.6476C8.49076 17.8704 9.07858 17.2041 9.85385 17.1467ZM8.57207 24.2792C8.57207 23.4891 9.21202 22.8492 10.0016 22.8492H24.2802C25.0703 22.8492 25.7102 23.4891 25.7102 24.2792C25.7102 25.0689 25.0703 25.7088 24.2802 25.7088H10.0016C9.21199 25.7088 8.57207 25.0688 8.57207 24.2792ZM28.5647 24.2792C28.5647 23.4891 29.2047 22.8492 29.9943 22.8492H35.711C36.5006 22.8492 37.1405 23.4891 37.1405 24.2792C37.1405 25.0689 36.5006 25.7088 35.711 25.7088H29.9943C29.2046 25.7088 28.5647 25.0688 28.5647 24.2792ZM8.60415 29.9941C8.60415 29.2169 9.22492 28.5827 10.0016 28.5655L17.1411 28.5655C17.5252 28.5574 17.8968 28.7042 18.1713 28.973C18.4459 29.2418 18.6008 29.61 18.6008 29.9941C18.6008 30.3786 18.4459 30.7464 18.1713 31.0152C17.8968 31.284 17.5252 31.4308 17.1411 31.4227H10.0016C9.22494 31.4059 8.60415 30.7713 8.60415 29.9941ZM8.57207 35.7094C8.57207 34.9198 9.21202 34.2794 10.0016 34.2794H24.2802C25.0703 34.2794 25.7102 34.9198 25.7102 35.7094C25.7102 36.4991 25.0703 37.139 24.2802 37.139H10.0016C9.21199 37.139 8.57207 36.4991 8.57207 35.7094ZM8.97097 40.4026C9.24597 40.1338 9.61759 39.9874 10.0016 39.996H17.1411C17.5257 39.9874 17.8973 40.1338 18.1723 40.4026C18.4468 40.6714 18.6018 41.0396 18.6018 41.4241C18.6018 41.8087 18.4468 42.1769 18.1723 42.4457C17.8973 42.7145 17.5257 42.8613 17.1411 42.8527H10.0016C9.61758 42.8613 9.24597 42.7145 8.97097 42.4457C8.69596 42.1769 8.54101 41.8087 8.54101 41.4241C8.54101 41.0396 8.69596 40.6713 8.97097 40.4026ZM28.5723 44.2755C28.5723 35.6148 35.6236 28.5657 44.2845 28.5657C52.9457 28.5657 59.9944 35.6146 59.9944 44.2755C59.9944 52.9369 52.9459 60 44.2845 60C35.6239 60 28.5723 52.9364 28.5723 44.2755ZM57.1379 44.2762C57.1379 37.1588 51.4017 31.4229 44.2845 31.4229C37.1679 31.4229 31.4287 37.1588 31.4287 44.2762C31.4287 51.3937 37.1679 57.1406 44.2845 57.1406C51.4015 57.1406 57.1379 51.3937 57.1379 44.2762ZM43.2534 34.6971C43.5164 34.424 43.8775 34.2666 44.2568 34.2599L44.2568 34.2601C44.6452 34.2534 45.0192 34.4045 45.2932 34.6795C45.5673 34.954 45.7179 35.3285 45.7103 35.7164V37.1392H47.1331C49.4828 37.1392 51.4269 39.0809 51.4269 41.4303C51.4355 41.8148 51.2887 42.1859 51.0199 42.4609C50.7511 42.7359 50.3829 42.8909 49.9984 42.8909C49.6138 42.8909 49.2456 42.7359 48.9768 42.4609C48.708 42.1859 48.5616 41.8148 48.5698 41.4303C48.5698 40.6143 47.9495 39.9964 47.1331 39.9964H45.7103V42.8559H47.1331C49.4828 42.8559 51.4269 44.7971 51.4269 47.1465C51.4269 49.4961 49.4828 51.4265 47.1331 51.4265H45.7103V52.8522C45.7189 53.2363 45.572 53.6079 45.3033 53.8829C45.0345 54.1574 44.6662 54.3124 44.2822 54.3124C43.8976 54.3124 43.5294 54.1574 43.2606 53.8829C42.9918 53.6079 42.845 53.2363 42.8536 52.8522V51.4265H41.4197C39.07 51.4265 37.1397 49.4961 37.1397 47.1465C37.1316 46.7624 37.2779 46.3908 37.5467 46.1158C37.8155 45.8413 38.1838 45.6863 38.5683 45.6863C38.9528 45.6863 39.3211 45.8413 39.5899 46.1158C39.8587 46.3908 40.005 46.7624 39.9969 47.1465C39.9969 47.9628 40.6033 48.5693 41.4197 48.5693H42.8536V45.7126H41.4197C39.07 45.7126 37.1397 43.7794 37.1397 41.4301C37.1397 39.0808 39.07 37.1391 41.4197 37.1391H42.8536V35.7163C42.8459 35.337 42.9899 34.9702 43.2534 34.6971ZM42.8536 39.9963H41.4197V39.9962C40.6033 39.9962 39.9969 40.6141 39.9969 41.4301C39.9969 42.2461 40.6033 42.8559 41.4197 42.8559H42.8536V39.9963ZM47.1331 45.7127H45.7102V48.5693H47.1331C47.9494 48.5693 48.5698 47.9629 48.5698 47.1465C48.5698 46.3306 47.9495 45.7127 47.1331 45.7127Z" fill="url(#paint0_linear_319_845)"/>
<defs>
<linearGradient id="paint0_linear_319_845" x1="30.076" y1="-27" x2="30.0761" y2="60" gradientUnits="userSpaceOnUse">
<stop stop-color="#00F5FF"/>
<stop offset="1" stop-color="#E002F3"/>
</linearGradient>
</defs>
</svg>
