<svg width="24" height="24" viewBox="0 0 24 24" fill="none" xmlns="http://www.w3.org/2000/svg">
<rect width="24" height="24" rx="6" fill="white"/>
<path d="M14.2 5C14.027 5.30988 13.8728 5.62991 13.7382 5.95834C12.4164 5.74929 11.0699 5.74929 9.74806 5.95834C9.61354 5.62991 9.45935 5.30988 9.28632 5C8.04117 5.21275 6.83071 5.59377 5.68819 6.13258C3.64514 9.08103 2.7186 12.6606 3.07454 16.23C4.40597 17.2309 5.9003 17.9943 7.49161 18.4864C7.85396 18.0078 8.17735 17.5009 8.45866 16.9705C7.93948 16.7791 7.44047 16.5369 6.96888 16.2474C7.09823 16.1614 7.22057 16.0652 7.33479 15.9599C8.70997 16.6223 10.2168 16.9663 11.7432 16.9663C13.2696 16.9663 14.7763 16.6223 16.1515 15.9599C16.2735 16.0645 16.3955 16.1603 16.5174 16.2474C16.0433 16.5346 15.5448 16.7795 15.0276 16.9792C15.2973 17.5216 15.612 18.0403 15.9686 18.53C17.5579 18.0395 19.0496 17.276 20.3769 16.2735C20.7414 12.7035 19.8141 9.12102 17.7633 6.17614C16.6336 5.62618 15.4351 5.23059 14.2 5ZM8.85071 14.1913C8.41474 14.16 8.00785 13.9611 7.71545 13.6362C7.42305 13.3113 7.26788 12.8858 7.28252 12.4489C7.26567 12.0115 7.42007 11.5847 7.71291 11.2594C8.00575 10.934 8.41394 10.7356 8.85071 10.7065C9.28749 10.7356 9.69567 10.934 9.98851 11.2594C10.2813 11.5847 10.4358 12.0115 10.4189 12.4489C10.4358 12.8863 10.2813 13.3131 9.98851 13.6385C9.69567 13.9638 9.28749 14.1622 8.85071 14.1913ZM14.6356 14.1913C14.1996 14.16 13.7927 13.9611 13.5003 13.6362C13.2079 13.3113 13.0528 12.8858 13.0674 12.4489C13.0506 12.0115 13.205 11.5847 13.4978 11.2594C13.7906 10.934 14.1988 10.7356 14.6356 10.7065C15.0732 10.7335 15.4827 10.9312 15.776 11.257C16.0693 11.5829 16.2229 12.0109 16.2038 12.4489C16.2229 12.8869 16.0693 13.3149 15.776 13.6408C15.4827 13.9667 15.0732 14.1644 14.6356 14.1913Z" fill="#070037"/>
</svg>
