<svg width="61" height="61" viewBox="0 0 61 61" fill="none" xmlns="http://www.w3.org/2000/svg">
<path fill-rule="evenodd" clip-rule="evenodd" d="M2.48292 26.3725C1.51568 32.4745 2.58123 38.7241 5.51573 44.1603L5.51616 44.1599C6.74267 44.1599 9.61399 44.4419 11.2225 46.359C13.2484 48.8305 12.2946 52.874 12.249 53.0467C12.1524 53.4391 11.8081 53.7206 11.404 53.7374V53.737H11.1589C10.2046 53.737 6.74261 53.4826 5.05259 51.4291C3.36257 49.3755 3.80766 46.3319 4.03481 45.2412C0.859278 39.4648 -0.323742 32.8021 0.668099 26.2851C1.65997 19.7681 4.77192 13.7598 9.52235 9.1892C14.2718 4.61857 20.3963 1.74094 26.9471 1.00137C33.4978 0.261807 40.1098 1.70121 45.7597 5.09759C45.9939 5.20343 46.1725 5.40379 46.2508 5.64852C46.3294 5.89324 46.3001 6.16012 46.1709 6.38226C46.0416 6.6044 45.8245 6.76168 45.5727 6.81481C45.3213 6.86794 45.059 6.81189 44.8511 6.66045C39.5608 3.46988 33.3692 2.10698 27.2282 2.78173C21.0874 3.45608 15.3384 6.13078 10.8669 10.3935C6.39591 14.6568 3.44966 20.2708 2.48292 26.3725ZM6.45159 50.2752C7.48769 51.5382 9.52284 51.8381 10.6042 51.9017L10.6043 51.9021C10.7495 50.8028 10.8587 48.7764 9.82289 47.513C8.78711 46.2501 6.78792 45.9774 5.74295 45.9774C5.54299 47.0131 5.41582 49.0123 6.45159 50.2752ZM56.5904 16.3829C56.8268 15.2833 57.2625 12.2488 55.5726 10.1953C53.5462 7.7239 49.394 7.87822 49.212 7.88743V7.88701C48.8079 7.90374 48.4636 8.18528 48.367 8.57766C48.3214 8.75043 47.3676 12.7939 49.3935 15.2654C51.002 17.2281 53.8733 17.4645 55.0998 17.4645C58.0314 22.8997 59.0953 29.148 58.128 35.2469C57.1609 41.346 54.2159 46.9583 49.7465 51.2205C45.2772 55.4819 39.531 58.1571 33.3927 58.8336C27.2542 59.5096 21.0644 58.15 15.7741 54.9636C15.5662 54.8122 15.3039 54.7561 15.0525 54.8093C14.8007 54.8624 14.5836 55.0197 14.4543 55.2418C14.3251 55.464 14.2958 55.7308 14.3744 55.9756C14.4527 56.2203 14.6313 56.4206 14.8655 56.5265C20.5154 59.9229 27.1274 61.3623 33.6781 60.6227C40.2289 59.8831 46.3534 57.0055 51.1028 52.4349C55.8533 47.8643 58.9652 41.8559 59.9571 35.3389C60.9489 28.822 59.7659 22.1594 56.5904 16.3829ZM50.0206 9.72264C51.102 9.78623 53.1371 10.0862 54.1732 11.3491C55.209 12.6121 55.0818 14.6112 54.8819 15.647C53.8369 15.647 51.8377 15.3743 50.8019 14.1113C49.7662 12.8484 49.8754 10.822 50.0205 9.72275L50.0206 9.72264ZM45.4779 15.6474C41.4611 11.6503 36.0247 9.40601 30.3577 9.40601C24.6907 9.40601 19.2546 11.6503 15.2376 15.6474H15.192C15.1775 15.6474 15.1722 15.6474 15.1718 15.6488C15.1715 15.6497 15.1729 15.651 15.1749 15.6531C15.1806 15.6588 15.192 15.6702 15.192 15.693C11.1946 19.7097 8.95068 25.1458 8.95068 30.8131C8.95068 36.4803 11.1946 41.9162 15.192 45.9332H15.2376C19.2544 49.9307 24.6905 52.1745 30.3577 52.1745C36.0243 52.1745 41.4609 49.9307 45.4779 45.9332C49.4749 41.9164 51.7192 36.4803 51.7192 30.8131C51.7192 25.1458 49.4749 19.7099 45.4779 15.693C45.4779 15.693 45.4959 15.6658 45.4779 15.6474ZM44.7964 44.0424C43.4854 42.8364 42.0296 41.7985 40.4621 40.9531C41.2816 37.9424 41.7213 34.841 41.7703 31.7211H49.9484C49.7326 36.3059 47.9083 40.6686 44.7964 44.0419V44.0424ZM10.7041 31.7216H18.8819C18.9308 34.8415 19.3705 37.943 20.1904 40.9536C18.6225 41.799 17.1668 42.8369 15.8562 44.043C12.7439 40.6692 10.9199 36.3065 10.7041 31.7222V31.7216ZM20.1628 20.6729C18.5954 19.8275 17.1397 18.7897 15.8288 17.5838L15.8285 17.5841C12.7167 20.9573 10.8924 25.3201 10.6765 29.9049H18.8547C18.9045 26.785 19.3442 23.6835 20.1628 20.6729ZM29.4037 21.3451C26.9946 21.2351 24.6261 20.6837 22.4161 19.7186C24.0062 15.0845 26.5412 11.8496 29.4037 11.2773V21.3451ZM29.4037 23.19V29.9049H20.6717C20.7303 27.0628 21.1297 24.2378 21.8618 21.4908C24.2521 22.5098 26.8077 23.0854 29.4037 23.19ZM29.4037 31.7221V38.437C26.8077 38.5416 24.2522 39.1172 21.8618 40.1362C21.1297 37.3891 20.7303 34.5642 20.6717 31.7221H29.4037ZM29.4037 40.2818V50.3496C26.5415 49.7774 24.0066 46.5424 22.4073 41.9083C24.6207 40.9441 26.9917 40.3928 29.4037 40.2818ZM31.221 40.2818C33.633 40.3927 36.0041 40.944 38.2174 41.9083C36.6181 46.5424 34.0832 49.7773 31.221 50.3496V40.2818ZM31.221 38.437V31.7221H39.953C39.8945 34.5642 39.495 37.3891 38.7629 40.1362C36.3727 39.1172 33.8171 38.5415 31.221 38.437ZM31.221 29.9049V23.19C33.8171 23.0854 36.3726 22.5098 38.7629 21.4908C39.495 24.2378 39.8945 27.0628 39.953 29.9049H31.221ZM31.221 21.3451V11.2773C34.0832 11.8496 36.6181 15.0845 38.2086 19.7186C35.9986 20.6837 33.6301 21.235 31.221 21.3451ZM35.8915 11.9953V11.9951C38.716 12.8318 41.3159 14.2947 43.4967 16.275C42.3873 17.2757 41.1679 18.1474 39.8622 18.8737C39.0465 16.3232 37.6923 13.9772 35.8915 11.9953ZM20.735 18.8828C19.4294 18.1566 18.21 17.2848 17.1002 16.2841C19.2805 14.3005 21.8804 12.8346 24.7058 11.995C22.9037 13.98 21.5495 16.3289 20.7351 18.8827L20.735 18.8828ZM20.735 42.7436C21.5574 45.3 22.9211 47.6489 24.7329 49.6313C21.9079 48.795 19.3085 47.3321 17.1277 45.3514C18.2263 44.347 19.4365 43.4718 20.735 42.7435V42.7436ZM39.8892 42.7436C41.1973 43.4703 42.4168 44.345 43.524 45.3515C41.3433 47.3322 38.7433 48.7951 35.9184 49.6314C37.7205 47.6464 39.0747 45.2975 39.8891 42.7437L39.8892 42.7436ZM41.7699 29.9045C41.7201 26.7847 41.2805 23.6832 40.4618 20.6726C42.0293 19.8272 43.485 18.7893 44.7961 17.5832C47.898 20.9612 49.7122 25.323 49.9206 29.904L41.7699 29.9045Z" fill="url(#paint0_linear_319_1005)"/>
<defs>
<linearGradient id="paint0_linear_319_1005" x1="30.3914" y1="-26.188" x2="30.3914" y2="60.8121" gradientUnits="userSpaceOnUse">
<stop stop-color="#00F5FF"/>
<stop offset="1" stop-color="#E002F3"/>
</linearGradient>
</defs>
</svg>
