<svg width="259" height="78" viewBox="0 0 259 78" fill="none" xmlns="http://www.w3.org/2000/svg">
<path fill-rule="evenodd" clip-rule="evenodd" d="M58 19.5V36L37.5 17L18 36V19L37.5 0L58 19.5ZM18 36L18.005 36C18.005 41.303 20.1116 46.3888 23.8614 50.1386C27.6112 53.8884 32.697 55.995 38 55.995C43.303 55.995 48.3888 53.8884 52.1386 50.1386C55.8884 46.3888 57.995 41.303 57.995 36H58H76C76 46.0782 71.9964 55.7437 64.8701 62.8701C57.7437 69.9964 48.0782 74 38 74C27.9218 74 18.2563 69.9964 11.1299 62.8701C4.00356 55.7437 0 46.0782 0 36L18 36ZM89.6924 16.2236L92.6924 11.7393H85.8486V4.23193L80.2031 7.51514V11.7393H77.6206L75.6206 16.2236H80.2031V25.4927C80.2031 27.4813 80.2632 28.8026 80.3833 29.4565C80.5301 30.3774 80.7904 31.1115 81.1641 31.6587C81.5511 32.1925 82.1517 32.633 82.9658 32.98C83.7799 33.3136 84.6942 33.4805 85.7085 33.4805C85.8559 33.4805 86.0007 33.4809 86.1431 33.4814L86.1461 33.4814C87.6016 33.4862 88.8094 33.4903 90 32.98L89.6724 28.2754C88.6847 28.6357 87.9307 28.8159 87.4102 28.8159C87.0365 28.8159 86.7161 28.7225 86.4492 28.5356C86.1956 28.3488 86.0288 28.1152 85.9487 27.835C85.882 27.5413 85.8486 26.527 85.8486 24.792V16.2236H89.6924ZM93.2663 16.644C92.3454 18.3924 91.8849 20.2008 91.8849 22.0693C91.8849 24.5117 92.3454 26.5871 93.2663 28.2954C94.1872 29.9904 95.5285 31.2783 97.2902 32.1592C99.0653 33.04 100.927 33.4805 102.876 33.4805C106.025 33.4805 108.635 32.4261 110.703 30.3174C112.785 28.1953 113.826 25.526 113.826 22.3096C113.826 19.1198 112.799 16.4839 110.743 14.4019C108.688 12.3065 106.052 11.2588 102.836 11.2588C100.754 11.2588 98.8651 11.7192 97.1701 12.6401C95.4884 13.561 94.1872 14.8957 93.2663 16.644ZM99.152 27.2144C98.151 26.0933 97.6505 24.4784 97.6505 22.3696C97.6505 20.2609 98.151 18.646 99.152 17.5249C100.153 16.4038 101.388 15.8433 102.856 15.8433C104.324 15.8433 105.552 16.4038 106.539 17.5249C107.54 18.646 108.041 20.2476 108.041 22.3296C108.041 24.465 107.54 26.0933 106.539 27.2144C105.552 28.3354 104.324 28.896 102.856 28.896C101.388 28.896 100.153 28.3354 99.152 27.2144ZM117.68 14L122.926 11V14.8623C123.606 13.7946 124.527 12.9271 125.688 12.2598C126.849 11.5924 128.137 11.2588 129.552 11.2588C132.021 11.2588 134.117 12.2264 135.838 14.1616C137.56 16.0968 138.421 18.7928 138.421 22.2495C138.421 25.7996 137.553 28.5623 135.818 30.5376C134.083 32.4995 131.981 33.4805 129.512 33.4805C128.338 33.4805 127.27 33.2469 126.309 32.7798C125.361 32.3127 124.36 31.5119 123.306 30.3774L123.246 39L117.68 41.7155V14ZM123.246 22.0093C123.246 24.3983 123.72 26.1667 124.667 27.3145C125.615 28.4489 126.769 29.0161 128.131 29.0161C129.439 29.0161 130.526 28.4956 131.394 27.4546C132.261 26.4002 132.695 24.6785 132.695 22.2896C132.695 20.0607 132.248 18.4058 131.354 17.3247C130.46 16.2437 129.352 15.7031 128.031 15.7031C126.656 15.7031 125.515 16.237 124.607 17.3047C123.7 18.359 123.246 19.9272 123.246 22.0093ZM152.245 16.2236L155.334 11.7393H148.401V4.23193L142.755 7.51514V11.7393H140.173L138.421 16.2236H142.755V25.4927C142.755 27.4813 142.815 28.8026 142.936 29.4565C143.082 30.3774 143.343 31.1115 143.716 31.6587C144.103 32.1925 144.704 32.633 145.518 32.98C146.332 33.3136 147.246 33.4805 148.261 33.4805C149.916 33.4805 151.397 33.2002 152.705 32.6396L152.225 28.2754C151.237 28.6357 150.483 28.8159 149.962 28.8159C149.589 28.8159 149.268 28.7225 149.001 28.5356C148.748 28.3488 148.581 28.1152 148.501 27.835C148.434 27.5413 148.401 26.527 148.401 24.792V16.2236H152.245ZM187 46L192.245 43V46.8623C192.926 45.7946 193.847 44.9271 195.008 44.2598C196.169 43.5924 197.457 43.2588 198.872 43.2588C201.341 43.2588 203.436 44.2264 205.158 46.1616C206.879 48.0968 207.74 50.7928 207.74 54.2495C207.74 57.7996 206.873 60.5623 205.138 62.5376C203.403 64.4995 201.301 65.4805 198.832 65.4805C197.657 65.4805 196.589 65.2469 195.628 64.7798C194.681 64.3127 193.68 63.5119 192.625 62.3774L192.565 76H187V46ZM192.565 54.0093C192.565 56.3983 193.039 58.1667 193.987 59.3145C194.934 60.4489 196.089 61.0161 197.45 61.0161C198.758 61.0161 199.846 60.4956 200.713 59.4546C201.581 58.4002 202.015 56.6785 202.015 54.2896C202.015 52.0607 201.568 50.4058 200.673 49.3247C199.779 48.2437 198.671 47.7031 197.35 47.7031C195.975 47.7031 194.834 48.237 193.927 49.3047C193.019 50.3591 192.565 51.9272 192.565 54.0093ZM179.943 3.65137V33H185.568L185.5 2L179.943 3.65137ZM205.5 29.8569L201.616 26.2334C201.309 27.3011 200.855 28.0752 200.255 28.5557C199.654 29.0361 198.913 29.2764 198.033 29.2764C196.738 29.2764 195.657 28.8159 194.789 27.895C193.922 26.9608 193.468 25.6595 193.428 23.9912H207.522C207.602 19.6803 206.728 16.4839 204.899 14.4019C203.071 12.3065 200.575 11.2588 197.412 11.2588C194.596 11.2588 192.267 12.2598 190.425 14.2617C188.583 16.2503 187.662 19.0063 187.662 22.5298C187.662 25.4793 188.363 27.9217 189.764 29.8569C191.54 32.2726 194.276 33.4805 197.972 33.4805C200.308 33.4805 202.25 32.9466 203.798 31.8789C204.853 31.1512 205 31 205.5 29.8569ZM200.675 16.8442C201.476 17.6851 201.896 18.9196 201.936 20.5479H193.528C193.515 19.013 193.908 17.7985 194.709 16.9043C195.51 16.0101 196.524 15.563 197.752 15.563C198.9 15.563 199.874 15.9901 200.675 16.8442ZM229.415 33H223.79V22.1494C223.79 19.8538 223.67 18.3724 223.429 17.7051C223.189 17.0244 222.795 16.4972 222.248 16.1235C221.714 15.7498 221.067 15.563 220.306 15.563C219.332 15.563 218.458 15.8299 217.684 16.3638C216.91 16.8976 216.376 17.605 216.082 18.4858C215.802 19.3667 215.662 20.995 215.662 23.3706V33H210.036V13L215.261 11.7393V14.8623C217.116 12.46 219.452 11.2588 222.268 11.2588C223.509 11.2588 224.644 11.4857 225.671 11.9395C226.699 12.3799 227.473 12.9471 227.994 13.6411C228.528 14.3351 228.895 15.1226 229.095 16.0034C229.308 16.8843 229.415 18.1455 229.415 19.7871V33ZM242.84 16.2236L246 11.7393H238.996V4.23193L233.351 7.51514V11.7393H230.768L230 16.1235L233.351 16.2236V25.4927C233.351 27.4813 233.411 28.8026 233.531 29.4565C233.678 30.3774 233.938 31.1115 234.312 31.6587C234.699 32.1925 235.3 32.633 236.114 32.98C236.928 33.3136 237.842 33.4805 238.856 33.4805C240.511 33.4805 241.993 33.2002 243.301 32.6396L242.82 28.2754C241.833 28.6357 241.079 28.8159 240.558 28.8159C240.184 28.8159 239.864 28.7225 239.597 28.5356C239.343 28.3488 239.177 28.1152 239.097 27.835C239.03 27.5413 238.996 26.527 238.996 24.792V16.2236H242.84ZM93 66V39.6514L98.5571 38L98.6255 66H93ZM181.158 51.708L186.433 50.7559C185.798 48.585 184.751 46.9727 183.291 45.9189C181.844 44.8525 179.889 44.3193 177.426 44.3193C174.417 44.3193 172.03 45.2524 170.266 47.1187C168.501 48.9722 167.619 51.5684 167.619 54.9072C167.619 58.208 168.495 60.7915 170.247 62.6577C172.011 64.5239 174.373 65.457 177.331 65.457C179.933 65.457 182.009 64.8413 183.558 63.6099C185.106 62.3784 186.154 60.5566 186.7 58.1445L181.444 57.2495C181.177 58.6587 180.72 59.6553 180.073 60.2393C179.425 60.8105 178.594 61.0962 177.578 61.0962C176.22 61.0962 175.134 60.6011 174.322 59.6108C173.522 58.6206 173.122 56.9258 173.122 54.5264C173.122 52.3682 173.516 50.832 174.303 49.918C175.103 48.9912 176.169 48.5278 177.502 48.5278C178.505 48.5278 179.317 48.7944 179.939 49.3276C180.574 49.8608 180.98 50.6543 181.158 51.708ZM254.442 65.5H249.217V62.377C248.349 63.5915 247.322 64.499 246.134 65.0996C244.959 65.6869 243.771 65.9805 242.57 65.9805C240.128 65.9805 238.033 64.9995 236.284 63.0376C234.549 61.0623 233.682 58.313 233.682 54.7896C233.682 51.186 234.529 48.45 236.224 46.5815C237.919 44.6997 240.061 43.7588 242.65 43.7588C245.026 43.7588 247.081 44.7464 248.816 46.7217V36.1514L254.442 34V65.5ZM239.427 54.4092C239.427 56.6781 239.741 58.3197 240.368 59.334C241.276 60.8021 242.544 61.5361 244.172 61.5361C245.466 61.5361 246.568 60.9889 247.475 59.8945C248.383 58.7868 248.836 57.1385 248.836 54.9497C248.836 52.5073 248.396 50.7523 247.515 49.6846C246.634 48.6035 245.507 48.063 244.132 48.063C242.797 48.063 241.676 48.5968 240.769 49.6646C239.874 50.7189 239.427 52.3005 239.427 54.4092ZM104.25 70V72.4816C104.306 72.3907 104.368 72.3057 104.438 72.2266C104.586 72.0599 104.759 71.9297 104.957 71.8359C105.158 71.7422 105.379 71.6953 105.621 71.6953C105.832 71.6953 106.021 71.724 106.188 71.7812C106.354 71.8385 106.496 71.9297 106.613 72.0547C106.73 72.1797 106.819 72.3398 106.879 72.5352C106.941 72.7305 106.973 72.9688 106.973 73.25V76H106.504V73.2461C106.504 72.9544 106.464 72.7266 106.383 72.5625C106.302 72.3958 106.188 72.2773 106.039 72.207C105.891 72.1367 105.715 72.1016 105.512 72.1016C105.288 72.1016 105.091 72.151 104.922 72.25C104.755 72.3464 104.615 72.4727 104.5 72.6289C104.393 72.776 104.309 72.9338 104.25 73.1024V76H103.785V70H104.25ZM98.1641 74.4961L99.3984 70.3125H99.4453H99.7852H99.8281L101.047 74.4961L101.261 75.3539L101.449 74.457L102.473 70.3125H102.965L101.512 76H101.422H101.125H101.051L99.7617 71.5547L99.6163 70.9837L99.4727 71.5547L98.1562 76H98.082H97.7852H97.6953L96.2383 70.3125H96.7305L97.7695 74.457L97.9497 75.3468L98.1641 74.4961ZM109.047 75.9258C109.279 76.0273 109.533 76.0781 109.809 76.0781C110.061 76.0781 110.283 76.0443 110.473 75.9766C110.663 75.9089 110.826 75.8177 110.961 75.7031C111.099 75.5885 111.214 75.4635 111.305 75.3281L111.012 75.1016C110.858 75.3021 110.685 75.4492 110.492 75.543C110.299 75.6341 110.078 75.6797 109.828 75.6797C109.615 75.6797 109.419 75.6367 109.242 75.5508C109.065 75.4648 108.911 75.3451 108.781 75.1914C108.654 75.0378 108.555 74.8607 108.484 74.6602C108.417 74.457 108.383 74.2383 108.383 74.0039V73.918H111.395V73.6328C111.395 73.349 111.358 73.0898 111.285 72.8555C111.212 72.6185 111.104 72.4141 110.961 72.2422C110.82 72.0677 110.646 71.9336 110.438 71.8398C110.229 71.7435 109.991 71.6953 109.723 71.6953C109.483 71.6953 109.254 71.7461 109.035 71.8477C108.819 71.9466 108.626 72.0898 108.457 72.2773C108.288 72.4648 108.155 72.6901 108.059 72.9531C107.962 73.2161 107.914 73.5104 107.914 73.8359V74.0039C107.914 74.306 107.96 74.5846 108.051 74.8398C108.145 75.0924 108.276 75.3112 108.445 75.4961C108.617 75.681 108.818 75.8242 109.047 75.9258ZM108.4 73.5195C108.415 73.3829 108.441 73.254 108.477 73.1328C108.542 72.9193 108.633 72.7357 108.75 72.582C108.87 72.4258 109.012 72.306 109.176 72.2227C109.342 72.1393 109.525 72.0977 109.723 72.0977C109.988 72.0977 110.21 72.1628 110.387 72.293C110.564 72.4232 110.697 72.5924 110.785 72.8008C110.876 73.0065 110.924 73.2279 110.93 73.4648V73.5195H108.4ZM112.781 76V73.0798L112.784 73.0687L112.79 73.0506L112.797 73.0273C112.852 72.8503 112.931 72.6966 113.035 72.5664C113.139 72.4336 113.267 72.3307 113.418 72.2578C113.572 72.1823 113.75 72.1445 113.953 72.1445C114.01 72.1445 114.064 72.1471 114.113 72.1523L114.154 72.1569L114.198 72.1624C114.22 72.1653 114.243 72.1685 114.266 72.1719L114.277 71.7422C114.249 71.7292 114.204 71.7188 114.145 71.7109C114.087 71.7005 114.029 71.6953 113.969 71.6953C113.724 71.6953 113.51 71.7461 113.328 71.8477C113.148 71.9466 112.999 72.0859 112.879 72.2656C112.843 72.3193 112.811 72.3757 112.781 72.4349L112.77 71.7734H112.316V76H112.781ZM115.805 75.9258C116.036 76.0273 116.29 76.0781 116.566 76.0781C116.819 76.0781 117.04 76.0443 117.23 75.9766C117.421 75.9089 117.583 75.8177 117.719 75.7031C117.857 75.5885 117.971 75.4635 118.062 75.3281L117.77 75.1016C117.616 75.3021 117.443 75.4492 117.25 75.543C117.057 75.6341 116.836 75.6797 116.586 75.6797C116.372 75.6797 116.177 75.6367 116 75.5508C115.823 75.4648 115.669 75.3451 115.539 75.1914C115.411 75.0378 115.312 74.8607 115.242 74.6602C115.174 74.457 115.141 74.2383 115.141 74.0039V73.918H118.152V73.6328C118.152 73.349 118.116 73.0898 118.043 72.8555C117.97 72.6185 117.862 72.4141 117.719 72.2422C117.578 72.0677 117.404 71.9336 117.195 71.8398C116.987 71.7435 116.749 71.6953 116.48 71.6953C116.241 71.6953 116.012 71.7461 115.793 71.8477C115.577 71.9466 115.384 72.0898 115.215 72.2773C115.046 72.4648 114.913 72.6901 114.816 72.9531C114.72 73.2161 114.672 73.5104 114.672 73.8359V74.0039C114.672 74.306 114.717 74.5846 114.809 74.8398C114.902 75.0924 115.034 75.3112 115.203 75.4961C115.375 75.681 115.576 75.8242 115.805 75.9258ZM115.158 73.5195C115.173 73.3829 115.198 73.254 115.234 73.1328C115.299 72.9193 115.391 72.7357 115.508 72.582C115.628 72.4258 115.77 72.306 115.934 72.2227C116.1 72.1393 116.283 72.0977 116.48 72.0977C116.746 72.0977 116.967 72.1628 117.145 72.293C117.322 72.4232 117.454 72.5924 117.543 72.8008C117.634 73.0065 117.682 73.2279 117.688 73.4648V73.5195H115.158ZM121.723 70.3125V76H121.242V70.3125H121.723ZM125.916 75.4342C125.87 75.5004 125.82 75.5626 125.766 75.6211C125.628 75.7669 125.461 75.8802 125.266 75.9609C125.073 76.0391 124.85 76.0781 124.598 76.0781C124.348 76.0781 124.122 76.026 123.922 75.9219C123.721 75.8177 123.551 75.6706 123.41 75.4805C123.27 75.2878 123.161 75.0599 123.086 74.7969C123.01 74.5339 122.973 74.2448 122.973 73.9297V73.8477C122.973 73.5195 123.01 73.224 123.086 72.9609C123.161 72.6953 123.27 72.4688 123.41 72.2812C123.553 72.0911 123.725 71.9466 123.926 71.8477C124.126 71.7461 124.353 71.6953 124.605 71.6953C124.853 71.6953 125.072 71.7357 125.262 71.8164C125.452 71.8971 125.615 72.013 125.75 72.1641C125.807 72.2261 125.859 72.293 125.906 72.3647V70H126.375V76H125.938L125.916 75.4342ZM125.906 72.9251L125.898 72.9062C125.839 72.763 125.757 72.6315 125.652 72.5117C125.551 72.3893 125.421 72.2917 125.262 72.2188C125.105 72.1432 124.915 72.1055 124.691 72.1055C124.475 72.1055 124.289 72.1497 124.133 72.2383C123.977 72.3268 123.846 72.4505 123.742 72.6094C123.641 72.7656 123.565 72.9492 123.516 73.1602C123.466 73.3711 123.441 73.6003 123.441 73.8477V73.9297C123.441 74.1771 123.466 74.4062 123.516 74.6172C123.565 74.8281 123.641 75.0117 123.742 75.168C123.844 75.3242 123.973 75.4466 124.129 75.5352C124.285 75.6237 124.47 75.668 124.684 75.668C124.952 75.668 125.177 75.6172 125.359 75.5156C125.542 75.4115 125.688 75.2747 125.797 75.1055C125.837 75.0417 125.874 74.9758 125.906 74.9077V72.9251ZM129.238 76.0781C128.962 76.0781 128.708 76.0273 128.477 75.9258C128.247 75.8242 128.047 75.681 127.875 75.4961C127.706 75.3112 127.574 75.0924 127.48 74.8398C127.389 74.5846 127.344 74.306 127.344 74.0039V73.8359C127.344 73.5104 127.392 73.2161 127.488 72.9531C127.585 72.6901 127.717 72.4648 127.887 72.2773C128.056 72.0898 128.249 71.9466 128.465 71.8477C128.684 71.7461 128.913 71.6953 129.152 71.6953C129.421 71.6953 129.659 71.7435 129.867 71.8398C130.076 71.9336 130.25 72.0677 130.391 72.2422C130.534 72.4141 130.642 72.6185 130.715 72.8555C130.788 73.0898 130.824 73.349 130.824 73.6328V73.918H127.812V74.0039C127.812 74.2383 127.846 74.457 127.914 74.6602C127.984 74.8607 128.083 75.0378 128.211 75.1914C128.341 75.3451 128.495 75.4648 128.672 75.5508C128.849 75.6367 129.044 75.6797 129.258 75.6797C129.508 75.6797 129.729 75.6341 129.922 75.543C130.115 75.4492 130.288 75.3021 130.441 75.1016L130.734 75.3281C130.643 75.4635 130.529 75.5885 130.391 75.7031C130.255 75.8177 130.092 75.9089 129.902 75.9766C129.712 76.0443 129.491 76.0781 129.238 76.0781ZM127.906 73.1328C127.87 73.254 127.845 73.3829 127.829 73.5195H130.359V73.4648C130.354 73.2279 130.306 73.0065 130.215 72.8008C130.126 72.5924 129.993 72.4232 129.816 72.293C129.639 72.1628 129.418 72.0977 129.152 72.0977C128.954 72.0977 128.772 72.1393 128.605 72.2227C128.441 72.306 128.299 72.4258 128.18 72.582C128.062 72.7357 127.971 72.9193 127.906 73.1328ZM134.321 75.4099C134.246 75.5038 134.157 75.5938 134.055 75.6797C133.911 75.7969 133.742 75.8932 133.547 75.9688C133.354 76.0417 133.135 76.0781 132.891 76.0781C132.615 76.0781 132.374 76.026 132.168 75.9219C131.965 75.8177 131.806 75.6758 131.691 75.4961C131.579 75.3138 131.523 75.1081 131.523 74.8789C131.523 74.6706 131.568 74.4844 131.656 74.3203C131.745 74.1536 131.872 74.013 132.039 73.8984C132.208 73.7812 132.411 73.6927 132.648 73.6328C132.888 73.5703 133.156 73.5391 133.453 73.5391H134.316V73.0625C134.316 72.862 134.275 72.6888 134.191 72.543C134.108 72.3971 133.986 72.2852 133.824 72.207C133.663 72.1289 133.464 72.0898 133.227 72.0898C133.008 72.0898 132.812 72.1289 132.641 72.207C132.471 72.2826 132.337 72.3854 132.238 72.5156C132.142 72.6432 132.094 72.7852 132.094 72.9414L131.625 72.9375C131.625 72.7786 131.664 72.625 131.742 72.4766C131.82 72.3281 131.931 72.1953 132.074 72.0781C132.217 71.9609 132.388 71.8685 132.586 71.8008C132.786 71.7305 133.007 71.6953 133.246 71.6953C133.548 71.6953 133.814 71.7461 134.043 71.8477C134.275 71.9492 134.456 72.1016 134.586 72.3047C134.716 72.5078 134.781 72.763 134.781 73.0703V75.1133C134.781 75.2591 134.792 75.4102 134.812 75.5664C134.836 75.7227 134.868 75.8516 134.91 75.9531V76H134.414C134.383 75.9062 134.358 75.7891 134.34 75.6484C134.331 75.5664 134.325 75.4868 134.321 75.4099ZM134.316 74.8324C134.269 74.9392 134.205 75.0407 134.125 75.1367C133.995 75.293 133.829 75.4193 133.629 75.5156C133.431 75.612 133.202 75.6602 132.941 75.6602C132.746 75.6602 132.577 75.6237 132.434 75.5508C132.293 75.4753 132.184 75.375 132.105 75.25C132.03 75.125 131.992 74.987 131.992 74.8359C131.992 74.6901 132.026 74.5599 132.094 74.4453C132.164 74.3307 132.264 74.2331 132.395 74.1523C132.525 74.069 132.684 74.0065 132.871 73.9648C133.061 73.9206 133.276 73.8984 133.516 73.8984H134.316V74.8324ZM138.566 74.9219C138.566 74.8073 138.538 74.694 138.48 74.582C138.423 74.4701 138.312 74.3672 138.148 74.2734C137.987 74.1797 137.749 74.1003 137.434 74.0352C137.199 73.9831 136.99 73.9245 136.805 73.8594C136.622 73.7943 136.469 73.7161 136.344 73.625C136.219 73.5339 136.124 73.4245 136.059 73.2969C135.993 73.1693 135.961 73.0182 135.961 72.8438C135.961 72.6875 135.995 72.5404 136.062 72.4023C136.133 72.2617 136.232 72.1393 136.359 72.0352C136.49 71.9284 136.646 71.8451 136.828 71.7852C137.013 71.7253 137.22 71.6953 137.449 71.6953C137.775 71.6953 138.053 71.7513 138.285 71.8633C138.52 71.9727 138.698 72.1224 138.82 72.3125C138.945 72.5026 139.008 72.7174 139.008 72.957H138.543C138.543 72.8112 138.5 72.6732 138.414 72.543C138.331 72.4128 138.207 72.306 138.043 72.2227C137.882 72.1393 137.684 72.0977 137.449 72.0977C137.207 72.0977 137.01 72.1341 136.859 72.207C136.708 72.2799 136.598 72.3724 136.527 72.4844C136.46 72.5964 136.426 72.7122 136.426 72.832C136.426 72.9258 136.44 73.0117 136.469 73.0898C136.5 73.1654 136.555 73.2357 136.633 73.3008C136.714 73.3659 136.828 73.4271 136.977 73.4844C137.125 73.5417 137.318 73.5977 137.555 73.6523C137.896 73.7279 138.174 73.8203 138.391 73.9297C138.609 74.0365 138.771 74.1693 138.875 74.3281C138.979 74.4844 139.031 74.6745 139.031 74.8984C139.031 75.0729 138.995 75.2331 138.922 75.3789C138.849 75.5221 138.743 75.6458 138.605 75.75C138.47 75.8542 138.306 75.9349 138.113 75.9922C137.923 76.0495 137.71 76.0781 137.473 76.0781C137.116 76.0781 136.814 76.0195 136.566 75.9023C136.322 75.7826 136.135 75.6263 136.008 75.4336C135.883 75.2383 135.82 75.0312 135.82 74.8125H136.285C136.301 75.0312 136.37 75.2044 136.492 75.332C136.615 75.457 136.764 75.5456 136.941 75.5977C137.121 75.6497 137.298 75.6758 137.473 75.6758C137.712 75.6758 137.913 75.6406 138.074 75.5703C138.236 75.5 138.358 75.4076 138.441 75.293C138.525 75.1784 138.566 75.0547 138.566 74.9219ZM143.902 76V70.7266H145.852V70.3125H143.902H143.426H141.48V70.7266H143.426V76H143.902ZM148.941 75.5547C148.965 75.5251 148.987 75.4946 149.009 75.4632L149.02 76H149.469V71.7734H149V74.8233C148.987 74.8645 148.973 74.9052 148.957 74.9453C148.874 75.1615 148.732 75.3359 148.531 75.4688C148.333 75.6016 148.062 75.668 147.719 75.668C147.583 75.668 147.457 75.6484 147.34 75.6094C147.223 75.5703 147.118 75.5052 147.027 75.4141C146.939 75.3229 146.868 75.2018 146.816 75.0508C146.767 74.8997 146.742 74.7109 146.742 74.4844V71.7734H146.277V74.4766C146.277 74.7656 146.31 75.0117 146.375 75.2148C146.443 75.418 146.538 75.5833 146.66 75.7109C146.783 75.8385 146.928 75.9323 147.098 75.9922C147.27 76.0495 147.458 76.0781 147.664 76.0781C147.961 76.0781 148.215 76.0326 148.426 75.9414C148.637 75.8503 148.809 75.7214 148.941 75.5547ZM151.156 73.0798V76H150.691V71.7734H151.145L151.156 72.4349C151.186 72.3757 151.218 72.3193 151.254 72.2656C151.374 72.0859 151.523 71.9466 151.703 71.8477C151.885 71.7461 152.099 71.6953 152.344 71.6953C152.404 71.6953 152.462 71.7005 152.52 71.7109C152.579 71.7188 152.624 71.7292 152.652 71.7422L152.641 72.1719C152.589 72.1641 152.538 72.1576 152.488 72.1523C152.439 72.1471 152.385 72.1445 152.328 72.1445C152.125 72.1445 151.947 72.1823 151.793 72.2578C151.642 72.3307 151.514 72.4336 151.41 72.5664C151.306 72.6966 151.227 72.8503 151.172 73.0273L151.165 73.0481L151.156 73.0798ZM153.852 76V73.1024C153.911 72.9338 153.994 72.776 154.102 72.6289C154.216 72.4727 154.357 72.3464 154.523 72.25C154.693 72.151 154.889 72.1016 155.113 72.1016C155.316 72.1016 155.492 72.1367 155.641 72.207C155.789 72.2773 155.904 72.3958 155.984 72.5625C156.065 72.7266 156.105 72.9544 156.105 73.2461V76H156.574V73.25C156.574 72.9688 156.543 72.7305 156.48 72.5352C156.421 72.3398 156.332 72.1797 156.215 72.0547C156.098 71.9297 155.956 71.8385 155.789 71.7812C155.622 71.724 155.434 71.6953 155.223 71.6953C154.98 71.6953 154.759 71.7422 154.559 71.8359C154.361 71.9297 154.188 72.0599 154.039 72.2266C153.968 72.3076 153.904 72.3949 153.848 72.4883L153.832 71.7734H153.387V76H153.852ZM160.328 72.9297V70.7266H163.371V70.3125H160.328H160.168H159.848V76H160.328V73.3438H162.977V72.9297H160.328ZM164.602 76V73.0798C164.607 73.0622 164.612 73.0447 164.617 73.0273C164.672 72.8503 164.751 72.6966 164.855 72.5664C164.96 72.4336 165.087 72.3307 165.238 72.2578C165.392 72.1823 165.57 72.1445 165.773 72.1445C165.831 72.1445 165.884 72.1471 165.934 72.1523C165.983 72.1576 166.034 72.1641 166.086 72.1719L166.098 71.7422C166.069 71.7292 166.025 71.7188 165.965 71.7109C165.908 71.7005 165.849 71.6953 165.789 71.6953C165.544 71.6953 165.331 71.7461 165.148 71.8477C164.969 71.9466 164.819 72.0859 164.699 72.2656C164.664 72.3193 164.631 72.3757 164.601 72.4349L164.59 71.7734H164.137V76H164.602ZM166.496 73.8242V73.9531C166.496 74.2604 166.54 74.5443 166.629 74.8047C166.717 75.0625 166.845 75.2865 167.012 75.4766C167.178 75.6667 167.378 75.8151 167.609 75.9219C167.841 76.026 168.1 76.0781 168.387 76.0781C168.671 76.0781 168.928 76.026 169.16 75.9219C169.392 75.8151 169.59 75.6667 169.754 75.4766C169.921 75.2865 170.048 75.0625 170.137 74.8047C170.225 74.5443 170.27 74.2604 170.27 73.9531V73.8242C170.27 73.5169 170.225 73.2331 170.137 72.9727C170.048 72.7122 169.921 72.487 169.754 72.2969C169.587 72.1068 169.388 71.9596 169.156 71.8555C168.924 71.7487 168.665 71.6953 168.379 71.6953C168.095 71.6953 167.837 71.7487 167.605 71.8555C167.374 71.9596 167.174 72.1068 167.008 72.2969C166.844 72.487 166.717 72.7122 166.629 72.9727C166.54 73.2331 166.496 73.5169 166.496 73.8242ZM166.961 73.9531V73.8242C166.961 73.5951 166.991 73.3776 167.051 73.1719C167.113 72.9661 167.204 72.7826 167.324 72.6211C167.447 72.4596 167.595 72.332 167.77 72.2383C167.947 72.1445 168.15 72.0977 168.379 72.0977C168.608 72.0977 168.811 72.1445 168.988 72.2383C169.165 72.332 169.314 72.4596 169.434 72.6211C169.556 72.7826 169.647 72.9661 169.707 73.1719C169.77 73.3776 169.801 73.5951 169.801 73.8242V73.9531C169.801 74.1849 169.77 74.4049 169.707 74.6133C169.647 74.819 169.557 75.0026 169.438 75.1641C169.318 75.3229 169.169 75.4479 168.992 75.5391C168.818 75.6302 168.616 75.6758 168.387 75.6758C168.155 75.6758 167.951 75.6302 167.773 75.5391C167.596 75.4479 167.448 75.3229 167.328 75.1641C167.208 75.0026 167.117 74.819 167.055 74.6133C166.992 74.4049 166.961 74.1849 166.961 73.9531ZM171.68 76V73.0979C171.729 72.931 171.802 72.7747 171.898 72.6289C172.003 72.4727 172.137 72.3464 172.301 72.25C172.467 72.151 172.671 72.1016 172.91 72.1016C173.113 72.1016 173.292 72.1354 173.445 72.2031C173.602 72.2708 173.723 72.3841 173.809 72.543C173.897 72.7018 173.941 72.9219 173.941 73.2031V76H174.406V73.2004C174.417 73.0912 174.444 72.9801 174.488 72.8672C174.543 72.7344 174.621 72.6107 174.723 72.4961C174.827 72.3789 174.956 72.2852 175.109 72.2148C175.263 72.1419 175.441 72.1042 175.645 72.1016C175.85 72.1016 176.03 72.1341 176.184 72.1992C176.337 72.2643 176.457 72.3802 176.543 72.5469C176.632 72.7109 176.676 72.9427 176.676 73.2422V76H177.145V73.2461C177.145 72.9727 177.113 72.7383 177.051 72.543C176.988 72.3477 176.897 72.1875 176.777 72.0625C176.66 71.9349 176.516 71.8424 176.344 71.7852C176.172 71.7253 175.977 71.6953 175.758 71.6953C175.508 71.6953 175.283 71.7383 175.082 71.8242C174.884 71.9102 174.714 72.0273 174.57 72.1758C174.469 72.2785 174.383 72.3915 174.312 72.5148L174.309 72.5039C174.243 72.3138 174.151 72.1602 174.031 72.043C173.914 71.9232 173.771 71.8359 173.602 71.7812C173.435 71.724 173.249 71.6953 173.043 71.6953C172.788 71.6953 172.56 71.7422 172.359 71.8359C172.159 71.9297 171.987 72.0599 171.844 72.2266C171.782 72.2987 171.726 72.3756 171.675 72.4575L171.66 71.7734H171.211V76H171.68ZM182.86 75.4099C182.785 75.5038 182.696 75.5938 182.594 75.6797C182.451 75.7969 182.281 75.8932 182.086 75.9688C181.893 76.0417 181.674 76.0781 181.43 76.0781C181.154 76.0781 180.913 76.026 180.707 75.9219C180.504 75.8177 180.345 75.6758 180.23 75.4961C180.118 75.3138 180.062 75.1081 180.062 74.8789C180.062 74.6706 180.107 74.4844 180.195 74.3203C180.284 74.1536 180.411 74.013 180.578 73.8984C180.747 73.7812 180.951 73.6927 181.188 73.6328C181.427 73.5703 181.695 73.5391 181.992 73.5391H182.855V73.0625C182.855 72.862 182.814 72.6888 182.73 72.543C182.647 72.3971 182.525 72.2852 182.363 72.207C182.202 72.1289 182.003 72.0898 181.766 72.0898C181.547 72.0898 181.352 72.1289 181.18 72.207C181.01 72.2826 180.876 72.3854 180.777 72.5156C180.681 72.6432 180.633 72.7852 180.633 72.9414L180.164 72.9375C180.164 72.7786 180.203 72.625 180.281 72.4766C180.359 72.3281 180.47 72.1953 180.613 72.0781C180.757 71.9609 180.927 71.8685 181.125 71.8008C181.326 71.7305 181.546 71.6953 181.785 71.6953C182.087 71.6953 182.353 71.7461 182.582 71.8477C182.814 71.9492 182.995 72.1016 183.125 72.3047C183.255 72.5078 183.32 72.763 183.32 73.0703V75.1133C183.32 75.2591 183.331 75.4102 183.352 75.5664C183.375 75.7227 183.408 75.8516 183.449 75.9531V76H182.953C182.922 75.9062 182.897 75.7891 182.879 75.6484C182.87 75.5664 182.864 75.4868 182.86 75.4099ZM182.855 74.8324C182.808 74.9392 182.744 75.0407 182.664 75.1367C182.534 75.293 182.368 75.4193 182.168 75.5156C181.97 75.612 181.741 75.6602 181.48 75.6602C181.285 75.6602 181.116 75.6237 180.973 75.5508C180.832 75.4753 180.723 75.375 180.645 75.25C180.569 75.125 180.531 74.987 180.531 74.8359C180.531 74.6901 180.565 74.5599 180.633 74.4453C180.703 74.3307 180.803 74.2331 180.934 74.1523C181.064 74.069 181.223 74.0065 181.41 73.9648C181.6 73.9206 181.815 73.8984 182.055 73.8984H182.855V74.8324ZM249.453 76V70H248.988V76H249.453ZM196.277 76H195.203H194.988H194.723V70.3125H194.965H195.203H196.312C196.667 70.3125 196.991 70.3737 197.285 70.4961C197.582 70.6159 197.839 70.7904 198.055 71.0195C198.273 71.2461 198.441 71.5182 198.559 71.8359C198.678 72.1536 198.738 72.5078 198.738 72.8984V73.418C198.738 73.8086 198.678 74.1628 198.559 74.4805C198.441 74.7982 198.273 75.0703 198.055 75.2969C197.836 75.5234 197.577 75.6979 197.277 75.8203C196.978 75.9401 196.645 76 196.277 76ZM196.277 75.5898H195.203V70.7266H196.312C196.607 70.7266 196.872 70.7773 197.109 70.8789C197.349 70.9805 197.555 71.1263 197.727 71.3164C197.898 71.5039 198.03 71.7305 198.121 71.9961C198.215 72.2617 198.262 72.5586 198.262 72.8867V73.418C198.262 73.8477 198.181 74.2253 198.02 74.5508C197.858 74.8763 197.629 75.1315 197.332 75.3164C197.038 75.4987 196.686 75.5898 196.277 75.5898ZM200.32 76V73.0798C200.325 73.0622 200.33 73.0447 200.336 73.0273C200.391 72.8503 200.47 72.6966 200.574 72.5664C200.678 72.4336 200.806 72.3307 200.957 72.2578C201.111 72.1823 201.289 72.1445 201.492 72.1445C201.549 72.1445 201.603 72.1471 201.652 72.1523C201.702 72.1576 201.753 72.1641 201.805 72.1719L201.816 71.7422C201.788 71.7292 201.743 71.7188 201.684 71.7109C201.626 71.7005 201.568 71.6953 201.508 71.6953C201.263 71.6953 201.049 71.7461 200.867 71.8477C200.688 71.9466 200.538 72.0859 200.418 72.2656C200.382 72.3193 200.35 72.3757 200.32 72.4349L200.309 71.7734H199.855V76H200.32ZM203.344 75.9258C203.576 76.0273 203.829 76.0781 204.105 76.0781C204.358 76.0781 204.579 76.0443 204.77 75.9766C204.96 75.9089 205.122 75.8177 205.258 75.7031C205.396 75.5885 205.51 75.4635 205.602 75.3281L205.309 75.1016C205.155 75.3021 204.982 75.4492 204.789 75.543C204.596 75.6341 204.375 75.6797 204.125 75.6797C203.911 75.6797 203.716 75.6367 203.539 75.5508C203.362 75.4648 203.208 75.3451 203.078 75.1914C202.951 75.0378 202.852 74.8607 202.781 74.6602C202.714 74.457 202.68 74.2383 202.68 74.0039V73.918H205.691V73.6328C205.691 73.349 205.655 73.0898 205.582 72.8555C205.509 72.6185 205.401 72.4141 205.258 72.2422C205.117 72.0677 204.943 71.9336 204.734 71.8398C204.526 71.7435 204.288 71.6953 204.02 71.6953C203.78 71.6953 203.551 71.7461 203.332 71.8477C203.116 71.9466 202.923 72.0898 202.754 72.2773C202.585 72.4648 202.452 72.6901 202.355 72.9531C202.259 73.2161 202.211 73.5104 202.211 73.8359V74.0039C202.211 74.306 202.257 74.5846 202.348 74.8398C202.441 75.0924 202.573 75.3112 202.742 75.4961C202.914 75.681 203.115 75.8242 203.344 75.9258ZM202.697 73.5195C202.712 73.3829 202.738 73.254 202.773 73.1328C202.839 72.9193 202.93 72.7357 203.047 72.582C203.167 72.4258 203.309 72.306 203.473 72.2227C203.639 72.1393 203.822 72.0977 204.02 72.0977C204.285 72.0977 204.507 72.1628 204.684 72.293C204.861 72.4232 204.993 72.5924 205.082 72.8008C205.173 73.0065 205.221 73.2279 205.227 73.4648V73.5195H202.697ZM208.922 75.6797C209.025 75.5938 209.113 75.5038 209.188 75.4099C209.192 75.4868 209.198 75.5664 209.207 75.6484C209.225 75.7891 209.25 75.9062 209.281 76H209.777V75.9531C209.736 75.8516 209.703 75.7227 209.68 75.5664C209.659 75.4102 209.648 75.2591 209.648 75.1133V73.0703C209.648 72.763 209.583 72.5078 209.453 72.3047C209.323 72.1016 209.142 71.9492 208.91 71.8477C208.681 71.7461 208.415 71.6953 208.113 71.6953C207.874 71.6953 207.654 71.7305 207.453 71.8008C207.255 71.8685 207.085 71.9609 206.941 72.0781C206.798 72.1953 206.688 72.3281 206.609 72.4766C206.531 72.625 206.492 72.7786 206.492 72.9375L206.961 72.9414C206.961 72.7852 207.009 72.6432 207.105 72.5156C207.204 72.3854 207.339 72.2826 207.508 72.207C207.68 72.1289 207.875 72.0898 208.094 72.0898C208.331 72.0898 208.53 72.1289 208.691 72.207C208.853 72.2852 208.975 72.3971 209.059 72.543C209.142 72.6888 209.184 72.862 209.184 73.0625V73.5391H208.32C208.023 73.5391 207.755 73.5703 207.516 73.6328C207.279 73.6927 207.076 73.7812 206.906 73.8984C206.74 74.013 206.612 74.1536 206.523 74.3203C206.435 74.4844 206.391 74.6706 206.391 74.8789C206.391 75.1081 206.447 75.3138 206.559 75.4961C206.673 75.6758 206.832 75.8177 207.035 75.9219C207.241 76.026 207.482 76.0781 207.758 76.0781C208.003 76.0781 208.221 76.0417 208.414 75.9688C208.609 75.8932 208.779 75.7969 208.922 75.6797ZM208.992 75.1367C209.072 75.0407 209.136 74.9392 209.184 74.8324V73.8984H208.383C208.143 73.8984 207.928 73.9206 207.738 73.9648C207.551 74.0065 207.392 74.069 207.262 74.1523C207.132 74.2331 207.031 74.3307 206.961 74.4453C206.893 74.5599 206.859 74.6901 206.859 74.8359C206.859 74.987 206.897 75.125 206.973 75.25C207.051 75.375 207.16 75.4753 207.301 75.5508C207.444 75.6237 207.613 75.6602 207.809 75.6602C208.069 75.6602 208.298 75.612 208.496 75.5156C208.697 75.4193 208.862 75.293 208.992 75.1367ZM211.344 73.0979V76H210.875V71.7734H211.324L211.339 72.4575C211.39 72.3756 211.446 72.2987 211.508 72.2266C211.651 72.0599 211.823 71.9297 212.023 71.8359C212.224 71.7422 212.452 71.6953 212.707 71.6953C212.913 71.6953 213.099 71.724 213.266 71.7812C213.435 71.8359 213.578 71.9232 213.695 72.043C213.815 72.1602 213.908 72.3138 213.973 72.5039L213.976 72.5148C214.048 72.3915 214.134 72.2785 214.234 72.1758C214.378 72.0273 214.548 71.9102 214.746 71.8242C214.947 71.7383 215.172 71.6953 215.422 71.6953C215.641 71.6953 215.836 71.7253 216.008 71.7852C216.18 71.8424 216.324 71.9349 216.441 72.0625C216.561 72.1875 216.652 72.3477 216.715 72.543C216.777 72.7383 216.809 72.9727 216.809 73.2461V76H216.34V73.2422C216.34 72.9427 216.296 72.7109 216.207 72.5469C216.121 72.3802 216.001 72.2643 215.848 72.1992C215.694 72.1341 215.514 72.1016 215.309 72.1016C215.105 72.1042 214.927 72.1419 214.773 72.2148C214.62 72.2852 214.491 72.3789 214.387 72.4961C214.285 72.6107 214.207 72.7344 214.152 72.8672C214.108 72.9801 214.081 73.0912 214.07 73.2004V76H213.605V73.2031C213.605 72.9219 213.561 72.7018 213.473 72.543C213.387 72.3841 213.266 72.2708 213.109 72.2031C212.956 72.1354 212.777 72.1016 212.574 72.1016C212.335 72.1016 212.132 72.151 211.965 72.25C211.801 72.3464 211.667 72.4727 211.562 72.6289C211.466 72.7747 211.393 72.931 211.344 73.0979ZM220.645 70.3125V76H220.164V70.3125H220.645ZM222.547 73.1024V76H222.082V71.7734H222.527L222.543 72.4883C222.6 72.3949 222.663 72.3076 222.734 72.2266C222.883 72.0599 223.056 71.9297 223.254 71.8359C223.454 71.7422 223.676 71.6953 223.918 71.6953C224.129 71.6953 224.318 71.724 224.484 71.7812C224.651 71.8385 224.793 71.9297 224.91 72.0547C225.027 72.1797 225.116 72.3398 225.176 72.5352C225.238 72.7305 225.27 72.9688 225.27 73.25V76H224.801V73.2461C224.801 72.9544 224.76 72.7266 224.68 72.5625C224.599 72.3958 224.484 72.2773 224.336 72.207C224.188 72.1367 224.012 72.1016 223.809 72.1016C223.585 72.1016 223.388 72.151 223.219 72.25C223.052 72.3464 222.911 72.4727 222.797 72.6289C222.69 72.776 222.606 72.9338 222.547 73.1024ZM228.078 71.7734V72.1562H227.203V74.9727C227.203 75.168 227.229 75.3151 227.281 75.4141C227.333 75.513 227.401 75.5794 227.484 75.6133C227.568 75.6471 227.658 75.6641 227.754 75.6641C227.794 75.6641 227.834 75.6628 227.872 75.6602C227.884 75.6594 227.896 75.6585 227.908 75.6574C227.921 75.6563 227.933 75.6551 227.945 75.6537L227.957 75.6523C228.022 75.6419 228.081 75.6315 228.133 75.6211L228.152 76.0156C228.095 76.0339 228.021 76.0482 227.93 76.0586C227.839 76.0716 227.747 76.0781 227.656 76.0781C227.477 76.0781 227.318 76.0456 227.18 75.9805C227.042 75.9128 226.934 75.7982 226.855 75.6367C226.777 75.4727 226.738 75.25 226.738 74.9688V72.1562H225.961V71.7734H226.738V70.6875H227.203V71.7734H228.078ZM228.723 73.8242V73.9531C228.723 74.2604 228.767 74.5443 228.855 74.8047C228.944 75.0625 229.072 75.2865 229.238 75.4766C229.405 75.6667 229.604 75.8151 229.836 75.9219C230.068 76.026 230.327 76.0781 230.613 76.0781C230.897 76.0781 231.155 76.026 231.387 75.9219C231.618 75.8151 231.816 75.6667 231.98 75.4766C232.147 75.2865 232.275 75.0625 232.363 74.8047C232.452 74.5443 232.496 74.2604 232.496 73.9531V73.8242C232.496 73.5169 232.452 73.2331 232.363 72.9727C232.275 72.7122 232.147 72.487 231.98 72.2969C231.814 72.1068 231.615 71.9596 231.383 71.8555C231.151 71.7487 230.892 71.6953 230.605 71.6953C230.322 71.6953 230.064 71.7487 229.832 71.8555C229.6 71.9596 229.401 72.1068 229.234 72.2969C229.07 72.487 228.944 72.7122 228.855 72.9727C228.767 73.2331 228.723 73.5169 228.723 73.8242ZM229.188 73.9531V73.8242C229.188 73.5951 229.217 73.3776 229.277 73.1719C229.34 72.9661 229.431 72.7826 229.551 72.6211C229.673 72.4596 229.822 72.332 229.996 72.2383C230.173 72.1445 230.376 72.0977 230.605 72.0977C230.835 72.0977 231.038 72.1445 231.215 72.2383C231.392 72.332 231.54 72.4596 231.66 72.6211C231.783 72.7826 231.874 72.9661 231.934 73.1719C231.996 73.3776 232.027 73.5951 232.027 73.8242V73.9531C232.027 74.1849 231.996 74.4049 231.934 74.6133C231.874 74.819 231.784 75.0026 231.664 75.1641C231.544 75.3229 231.396 75.4479 231.219 75.5391C231.044 75.6302 230.842 75.6758 230.613 75.6758C230.382 75.6758 230.177 75.6302 230 75.5391C229.823 75.4479 229.674 75.3229 229.555 75.1641C229.435 75.0026 229.344 74.819 229.281 74.6133C229.219 74.4049 229.188 74.1849 229.188 73.9531ZM235.516 70.3125H237.363C237.757 70.3125 238.098 70.3763 238.387 70.5039C238.676 70.6315 238.898 70.8203 239.055 71.0703C239.214 71.3177 239.293 71.6224 239.293 71.9844C239.293 72.2526 239.236 72.4961 239.121 72.7148C239.009 72.9336 238.854 73.1172 238.656 73.2656C238.496 73.3834 238.316 73.4715 238.115 73.5298L239.539 75.9492V76H239.027L237.654 73.6289H235.996V76H235.516V70.3125ZM237.473 73.2188H235.996V70.7266H237.363C237.676 70.7266 237.94 70.7773 238.156 70.8789C238.372 70.9805 238.535 71.1263 238.645 71.3164C238.757 71.5039 238.812 71.7266 238.812 71.9844C238.812 72.2005 238.762 72.4036 238.66 72.5938C238.561 72.7812 238.413 72.9323 238.215 73.0469C238.017 73.1615 237.77 73.2188 237.473 73.2188ZM241.375 75.9258C241.607 76.0273 241.861 76.0781 242.137 76.0781C242.389 76.0781 242.611 76.0443 242.801 75.9766C242.991 75.9089 243.154 75.8177 243.289 75.7031C243.427 75.5885 243.542 75.4635 243.633 75.3281L243.34 75.1016C243.186 75.3021 243.013 75.4492 242.82 75.543C242.628 75.6341 242.406 75.6797 242.156 75.6797C241.943 75.6797 241.747 75.6367 241.57 75.5508C241.393 75.4648 241.24 75.3451 241.109 75.1914C240.982 75.0378 240.883 74.8607 240.812 74.6602C240.745 74.457 240.711 74.2383 240.711 74.0039V73.918H243.723V73.6328C243.723 73.349 243.686 73.0898 243.613 72.8555C243.54 72.6185 243.432 72.4141 243.289 72.2422C243.148 72.0677 242.974 71.9336 242.766 71.8398C242.557 71.7435 242.319 71.6953 242.051 71.6953C241.811 71.6953 241.582 71.7461 241.363 71.8477C241.147 71.9466 240.954 72.0898 240.785 72.2773C240.616 72.4648 240.483 72.6901 240.387 72.9531C240.29 73.2161 240.242 73.5104 240.242 73.8359V74.0039C240.242 74.306 240.288 74.5846 240.379 74.8398C240.473 75.0924 240.604 75.3112 240.773 75.4961C240.945 75.681 241.146 75.8242 241.375 75.9258ZM240.728 73.5195C240.743 73.3829 240.769 73.254 240.805 73.1328C240.87 72.9193 240.961 72.7357 241.078 72.582C241.198 72.4258 241.34 72.306 241.504 72.2227C241.671 72.1393 241.853 72.0977 242.051 72.0977C242.316 72.0977 242.538 72.1628 242.715 72.293C242.892 72.4232 243.025 72.5924 243.113 72.8008C243.204 73.0065 243.253 73.2279 243.258 73.4648V73.5195H240.728ZM246.953 75.6797C247.056 75.5938 247.145 75.5038 247.219 75.4099C247.223 75.4868 247.229 75.5664 247.238 75.6484C247.257 75.7891 247.281 75.9062 247.312 76H247.809V75.9531C247.767 75.8516 247.734 75.7227 247.711 75.5664C247.69 75.4102 247.68 75.2591 247.68 75.1133V73.0703C247.68 72.763 247.615 72.5078 247.484 72.3047C247.354 72.1016 247.173 71.9492 246.941 71.8477C246.712 71.7461 246.447 71.6953 246.145 71.6953C245.905 71.6953 245.685 71.7305 245.484 71.8008C245.286 71.8685 245.116 71.9609 244.973 72.0781C244.829 72.1953 244.719 72.3281 244.641 72.4766C244.562 72.625 244.523 72.7786 244.523 72.9375L244.992 72.9414C244.992 72.7852 245.04 72.6432 245.137 72.5156C245.236 72.3854 245.37 72.2826 245.539 72.207C245.711 72.1289 245.906 72.0898 246.125 72.0898C246.362 72.0898 246.561 72.1289 246.723 72.207C246.884 72.2852 247.007 72.3971 247.09 72.543C247.173 72.6888 247.215 72.862 247.215 73.0625V73.5391H246.352C246.055 73.5391 245.786 73.5703 245.547 73.6328C245.31 73.6927 245.107 73.7812 244.938 73.8984C244.771 74.013 244.643 74.1536 244.555 74.3203C244.466 74.4844 244.422 74.6706 244.422 74.8789C244.422 75.1081 244.478 75.3138 244.59 75.4961C244.704 75.6758 244.863 75.8177 245.066 75.9219C245.272 76.026 245.513 76.0781 245.789 76.0781C246.034 76.0781 246.253 76.0417 246.445 75.9688C246.641 75.8932 246.81 75.7969 246.953 75.6797ZM247.023 75.1367C247.103 75.0407 247.167 74.9392 247.215 74.8324V73.8984H246.414C246.174 73.8984 245.96 73.9206 245.77 73.9648C245.582 74.0065 245.423 74.069 245.293 74.1523C245.163 74.2331 245.062 74.3307 244.992 74.4453C244.924 74.5599 244.891 74.6901 244.891 74.8359C244.891 74.987 244.928 75.125 245.004 75.25C245.082 75.375 245.191 75.4753 245.332 75.5508C245.475 75.6237 245.645 75.6602 245.84 75.6602C246.1 75.6602 246.329 75.612 246.527 75.5156C246.728 75.4193 246.893 75.293 247.023 75.1367ZM251.25 71.7734V76H250.785V71.7734H251.25ZM250.703 70.5508C250.703 70.4622 250.73 70.388 250.785 70.3281C250.842 70.2656 250.921 70.2344 251.02 70.2344C251.118 70.2344 251.197 70.2656 251.254 70.3281C251.314 70.388 251.344 70.4622 251.344 70.5508C251.344 70.6367 251.314 70.7109 251.254 70.7734C251.197 70.8333 251.118 70.8633 251.02 70.8633C250.921 70.8633 250.842 70.8333 250.785 70.7734C250.73 70.7109 250.703 70.6367 250.703 70.5508ZM254.125 72.1562V71.7734H253.25V70.6875H252.785V71.7734H252.008V72.1562H252.785V74.9688C252.785 75.25 252.824 75.4727 252.902 75.6367C252.98 75.7982 253.089 75.9128 253.227 75.9805C253.365 76.0456 253.523 76.0781 253.703 76.0781C253.794 76.0781 253.885 76.0716 253.977 76.0586C254.068 76.0482 254.142 76.0339 254.199 76.0156L254.18 75.6211C254.128 75.6315 254.069 75.6419 254.004 75.6523C253.939 75.6602 253.871 75.6641 253.801 75.6641C253.704 75.6641 253.615 75.6471 253.531 75.6133C253.448 75.5794 253.38 75.513 253.328 75.4141C253.276 75.3151 253.25 75.168 253.25 74.9727V72.1562H254.125ZM254.621 71.7734L256.217 75.9649L256.012 76.5234C255.952 76.6927 255.883 76.8333 255.805 76.9453C255.727 77.0599 255.629 77.1458 255.512 77.2031C255.397 77.2604 255.255 77.2891 255.086 77.2891C255.065 77.2891 255.027 77.2865 254.973 77.2812C254.918 77.276 254.876 77.2695 254.848 77.2617L254.852 77.6562C254.885 77.6667 254.94 77.6771 255.016 77.6875C255.094 77.7005 255.158 77.707 255.207 77.707C255.4 77.707 255.562 77.6719 255.695 77.6016C255.831 77.5339 255.943 77.4453 256.031 77.3359C256.122 77.2292 256.195 77.1172 256.25 77C256.307 76.8828 256.354 76.776 256.391 76.6797L258.18 71.7734H257.676L256.447 75.3238L255.129 71.7734H254.621ZM172 13V14.2532C170.212 12.8421 167.954 12 165.5 12C159.701 12 155 16.701 155 22.5C155 28.299 159.701 33 165.5 33C167.954 33 170.212 32.1579 172 30.7468V34H177V11L172 13ZM171 22.5C171 25.5376 168.538 28 165.5 28C162.462 28 160 25.5376 160 22.5C160 19.4624 162.462 17 165.5 17C168.538 17 171 19.4624 171 22.5ZM151 43L145 45V52V66H150.25H151V50.8164C151.966 49.453 153.733 49 155.5 49C158.125 49 160.75 51 160.75 53.5V66H166V52C166 48.5 162.325 44 155.5 44C153.802 44 152.3 44.2165 151 44.6111V43ZM117 46.2532V45L122 43V66H117V62.7468C115.212 64.1579 112.954 65 110.5 65C104.701 65 100 60.299 100 54.5C100 48.701 104.701 44 110.5 44C112.954 44 115.212 44.8421 117 46.2532ZM110.5 60C113.538 60 116 57.5376 116 54.5C116 51.4624 113.538 49 110.5 49C107.462 49 105 51.4624 105 54.5C105 57.5376 107.462 60 110.5 60ZM226 46.2532V45L231 43V66H226V62.7468C224.212 64.1579 221.954 65 219.5 65C213.701 65 209 60.299 209 54.5C209 48.701 213.701 44 219.5 44C221.954 44 224.212 44.8421 226 46.2532ZM219.5 60C222.538 60 225 57.5376 225 54.5C225 51.4624 222.538 49 219.5 49C216.462 49 214 51.4624 214 54.5C214 57.5376 216.462 60 219.5 60ZM144 58V43L139 45.5V56.5C139 59 136.5 61 134 61C131.5 61 129 60 129 56.5V43L124 45.5V58C124 62.5 127.5 66 134 66C140.5 66 144 61.5 144 58Z" fill="white"/>
</svg>
