<svg width="60" height="60" viewBox="0 0 60 60" fill="none" xmlns="http://www.w3.org/2000/svg">
<path fill-rule="evenodd" clip-rule="evenodd" d="M19.424 7.75848C19.424 8.14522 19.1033 8.46633 18.7161 8.46633C18.3199 8.46632 18.0083 8.14521 18.0083 7.74892V0.707845C18.0083 0.321113 18.329 0 18.7161 0C19.1029 0 19.424 0.320679 19.424 0.707845V7.75848ZM24.4261 33.94C30.231 33.94 34.9498 29.2206 34.9498 23.4163C34.9498 17.6114 30.2304 12.8926 24.4261 12.8926C18.6212 12.8926 13.9023 17.612 13.9023 23.4163C13.9023 29.2212 18.6218 33.94 24.4261 33.94ZM24.4261 14.2986C29.4475 14.2986 33.5342 18.3853 33.5342 23.4067C33.5342 28.4282 29.4475 32.5149 24.4261 32.5149C19.4047 32.5149 15.318 28.4282 15.318 23.4067C15.318 18.3853 19.3955 14.2986 24.4261 14.2986ZM24.4255 27.1454C23.5855 27.1454 22.906 26.4658 22.906 25.6259C22.906 25.2387 22.5849 24.918 22.1981 24.918C21.811 24.918 21.4903 25.2391 21.4903 25.6259C21.4903 26.9946 22.4436 28.1461 23.7176 28.4668V28.8348C23.7176 29.222 24.0387 29.5427 24.4255 29.5427C24.8126 29.5427 25.1333 29.2216 25.1333 28.8348V28.4668C26.4073 28.1457 27.3606 27.0038 27.3606 25.6259C27.3606 24.012 26.0488 22.6906 24.4254 22.6906C23.5854 22.6906 22.9059 22.011 22.9059 21.1711C22.9059 20.3312 23.5855 19.6516 24.4254 19.6516C25.2653 19.6516 25.9449 20.3312 25.9449 21.1711C25.9449 21.5582 26.266 21.8789 26.6527 21.8789C27.0399 21.8789 27.3606 21.5578 27.3606 21.1711C27.3606 19.8023 26.4072 18.6509 25.1333 18.3302V17.9808C25.1333 17.5936 24.8121 17.2729 24.4254 17.2729C24.0382 17.2729 23.7176 17.5941 23.7176 17.9808V18.3302C22.4436 18.6513 21.4902 19.7932 21.4902 21.1711C21.4902 22.7849 22.8021 24.1063 24.4255 24.1063C25.2654 24.1063 25.945 24.7859 25.945 25.6259C25.9454 26.4658 25.2563 27.1454 24.4255 27.1454ZM49.1638 27.1454C48.3238 27.1454 47.6443 26.4658 47.6443 25.6259C47.6443 25.2387 47.3231 24.918 46.9364 24.918C46.5492 24.918 46.2286 25.2391 46.2286 25.6259C46.2286 26.9946 47.1819 28.1461 48.4559 28.4668V28.8348C48.4559 29.222 48.777 29.5427 49.1637 29.5427C49.5509 29.5427 49.8716 29.2216 49.8716 28.8348V28.4668C51.1456 28.1457 52.0989 27.0038 52.0989 25.6259C52.0989 24.012 50.7871 22.6906 49.1637 22.6906C48.3237 22.6906 47.6441 22.011 47.6441 21.1711C47.6441 20.3312 48.3237 19.6516 49.1637 19.6516C50.0036 19.6516 50.6832 20.3312 50.6832 21.1711C50.6832 21.5582 51.0043 21.8789 51.391 21.8789C51.7782 21.8789 52.0989 21.5578 52.0989 21.1711C52.0989 19.8023 51.1455 18.6509 49.8715 18.3302V17.9808C49.8715 17.5936 49.5504 17.2729 49.1637 17.2729C48.7765 17.2729 48.4558 17.5941 48.4558 17.9808V18.3302C47.1818 18.6513 46.2285 19.7932 46.2285 21.1711C46.2285 22.7849 47.5404 24.1063 49.1638 24.1063C50.0037 24.1063 50.6833 24.7859 50.6833 25.6259C50.6833 26.4658 50.0037 27.1454 49.1638 27.1454ZM54.9786 40.5948C56.6777 39.8305 58.6786 40.5666 59.4621 42.2561L59.4622 42.2559C59.8489 43.058 59.8867 44.0113 59.5847 44.8704L59.5838 44.8732C59.574 44.9023 59.5553 44.9576 59.5187 45.0308C59.1885 45.8142 58.5841 46.4373 57.8197 46.7958L35.6866 59.4147C35.0074 59.8019 34.2426 60 33.4687 60C32.9686 60 32.4589 59.9153 31.9774 59.7454L16.0358 54.0635C15.517 53.8745 14.9599 53.7802 14.3842 53.7802H11.7605V56.5646C11.7605 57.584 10.9297 58.4053 9.91982 58.4053H1.84067C0.821253 58.4053 0 57.5744 0 56.5646V33.516C0 32.4965 0.830831 31.6753 1.84067 31.6753L9.91025 31.6757C10.9297 31.6757 11.7509 32.5066 11.7509 33.5164V36.5554H16.4512C18.4052 36.5554 20.3398 36.9048 22.1804 37.5748L29.646 40.3024H38.254C39.2542 40.3024 40.2263 40.7179 40.9155 41.4539C41.5573 42.1431 41.8779 43.0208 41.8215 43.9268C41.8028 44.2097 41.7458 44.493 41.6611 44.7667L54.9786 40.5948ZM1.84012 56.9796H9.90971L9.90972 56.9795C10.1457 56.9795 10.3347 56.7909 10.3434 56.5545V53.0718V53.0622V33.5064C10.3434 33.2705 10.1548 33.0819 9.91884 33.0819H1.83969C1.60374 33.0819 1.41516 33.2705 1.41516 33.5064L1.41559 56.5551C1.41559 56.791 1.60417 56.9796 1.84012 56.9796ZM58.2388 44.4126C58.2435 44.4008 58.2481 44.389 58.2529 44.3796L58.2535 44.3805C58.4329 43.8612 58.4047 43.3233 58.1779 42.8605C57.9515 42.3699 57.5547 42.0019 57.0546 41.8224C56.5545 41.643 56.0165 41.6621 55.5351 41.8885C55.5068 41.9076 55.4786 41.9167 55.4503 41.9263L39.7824 46.8342C39.3574 47.0232 38.895 47.1175 38.4231 47.1175H29.0413C28.6545 47.1175 28.3334 46.7969 28.3334 46.4097C28.3334 46.023 28.6541 45.7018 29.0413 45.7018H38.404C38.5174 45.7018 38.6304 45.6923 38.7438 45.6736L39.2631 45.5133C39.4708 45.419 39.6594 45.2869 39.8293 45.117C40.1691 44.7772 40.3768 44.3148 40.405 43.8334C40.4337 43.3145 40.2542 42.8139 39.8766 42.4177C39.4611 41.9645 38.8668 41.7098 38.2532 41.7098H29.5228C29.4376 41.7098 29.3529 41.6907 29.2773 41.6624L21.6982 38.8876C20.0087 38.2741 18.2437 37.9625 16.4504 37.9625H11.7502V52.3557H14.3738C15.1195 52.3557 15.8369 52.4782 16.5165 52.7237L17.2435 52.9879L32.4487 58.396C33.2887 58.698 34.2137 58.6133 34.9876 58.1696L57.1675 45.5407C57.6867 45.2952 58.0265 44.9271 58.2247 44.4457C58.2295 44.4363 58.2341 44.4245 58.2388 44.4126ZM24.4262 10.4102C24.8133 10.4102 25.134 10.0891 25.134 9.70238L25.1344 2.65218C25.1344 2.26501 24.8133 1.94434 24.4266 1.94434C24.0394 1.94434 23.7188 2.26545 23.7188 2.65218V9.69325C23.7183 10.0895 24.0299 10.4102 24.4262 10.4102ZM30.8454 7.75848C30.8454 8.14522 30.5247 8.46633 30.1375 8.46633C29.7408 8.46632 29.4297 8.14521 29.4297 7.74892V0.707845C29.4297 0.321113 29.7504 0 30.1375 0C30.5243 0 30.8454 0.320679 30.8454 0.707845V7.75848ZM49.1644 33.94C54.9692 33.94 59.6881 29.2206 59.6881 23.4163C59.6881 17.6114 54.9687 12.8926 49.1644 12.8926C43.3595 12.8926 38.6406 17.612 38.6406 23.4163C38.6406 29.2212 43.3596 33.94 49.1644 33.94ZM49.1644 14.2986C54.1858 14.2986 58.2725 18.3853 58.2725 23.4067C58.2725 28.4282 54.1858 32.5149 49.1644 32.5149C44.1429 32.5149 40.0563 28.4282 40.0563 23.4067C40.0563 18.3853 44.1429 14.2986 49.1644 14.2986ZM44.1628 7.75848C44.1628 8.14522 43.8421 8.46633 43.4549 8.46633C43.0682 8.46632 42.7471 8.14521 42.7471 7.74892V0.707845C42.7471 0.321113 43.0677 0 43.4549 0C43.8416 0 44.1628 0.320679 44.1628 0.707845V7.75848ZM49.1649 10.4102C49.552 10.4102 49.8727 10.0891 49.8727 9.70238V2.65218C49.8727 2.26501 49.5516 1.94434 49.1649 1.94434C48.7777 1.94434 48.457 2.26545 48.457 2.65218V9.69325C48.457 10.0895 48.7777 10.4102 49.1649 10.4102ZM55.5822 7.75848C55.5822 8.14522 55.2615 8.46633 54.8744 8.46633C54.4872 8.46632 54.1665 8.14521 54.1665 7.74892V0.707845C54.1665 0.321113 54.4872 0 54.8744 0C55.2611 0 55.5822 0.320679 55.5822 0.707845V7.75848Z" fill="url(#paint0_linear_319_817)"/>
<defs>
<linearGradient id="paint0_linear_319_817" x1="29.9712" y1="-27" x2="29.9712" y2="60" gradientUnits="userSpaceOnUse">
<stop stop-color="#00F5FF"/>
<stop offset="1" stop-color="#E002F3"/>
</linearGradient>
</defs>
</svg>
