<svg width="24" height="24" viewBox="0 0 24 24" fill="none" xmlns="http://www.w3.org/2000/svg">
<g clip-path="url(#clip0_319_4019)">
<path d="M14.6724 15.6406C14.8078 15.776 14.8078 15.9115 14.6724 16.0469C14.1203 16.599 13.2297 16.875 12.0005 16.875C10.7713 16.875 9.8807 16.599 9.32861 16.0469C9.1932 15.9115 9.1932 15.776 9.32861 15.6406C9.3807 15.5781 9.44841 15.5469 9.53174 15.5469C9.61507 15.5469 9.68278 15.5781 9.73486 15.6406C10.1724 16.0781 10.9276 16.2969 12.0005 16.2969C13.0734 16.2969 13.8286 16.0781 14.2661 15.6406C14.3182 15.5781 14.3859 15.5469 14.4692 15.5469C14.5526 15.5469 14.6203 15.5781 14.6724 15.6406ZM10.563 13.2031C10.563 13.526 10.4432 13.8073 10.2036 14.0469C9.96403 14.2865 9.68278 14.4062 9.35986 14.4062C9.03695 14.4062 8.7557 14.2865 8.51611 14.0469C8.27653 13.8073 8.15674 13.526 8.15674 13.2031C8.15674 12.8698 8.27393 12.5859 8.5083 12.3516C8.74268 12.1172 9.02653 12 9.35986 12C9.6932 12 9.97705 12.1172 10.2114 12.3516C10.4458 12.5859 10.563 12.8698 10.563 13.2031ZM15.8442 13.2031C15.8442 13.526 15.7244 13.8073 15.4849 14.0469C15.2453 14.2865 14.964 14.4062 14.6411 14.4062C14.3182 14.4062 14.0369 14.2865 13.7974 14.0469C13.5578 13.8073 13.438 13.526 13.438 13.2031C13.438 12.8698 13.5552 12.5859 13.7896 12.3516C14.0239 12.1172 14.3078 12 14.6411 12C14.9744 12 15.2583 12.1172 15.4927 12.3516C15.7271 12.5859 15.8442 12.8698 15.8442 13.2031ZM19.2036 11.5938C19.2036 11.1562 19.0474 10.7812 18.7349 10.4688C18.4224 10.1562 18.0422 10 17.5942 10C17.1567 10 16.7765 10.1615 16.4536 10.4844C15.2765 9.67188 13.8859 9.24479 12.2817 9.20312L13.1255 5.40625L15.7974 6.01562C15.8078 6.34896 15.9302 6.63021 16.1646 6.85938C16.3989 7.08854 16.6776 7.20312 17.0005 7.20312C17.3338 7.20312 17.6177 7.08594 17.8521 6.85156C18.0864 6.61719 18.2036 6.33333 18.2036 6C18.2036 5.66667 18.0864 5.38281 17.8521 5.14844C17.6177 4.91406 17.3338 4.79688 17.0005 4.79688C16.5005 4.79688 16.1411 5.02083 15.9224 5.46875L12.9692 4.8125C12.7922 4.76042 12.6828 4.82812 12.6411 5.01562L11.7036 9.20312C10.0994 9.26562 8.71924 9.69792 7.56299 10.5C7.25049 10.1667 6.86507 10 6.40674 10C5.95882 10 5.57861 10.1562 5.26611 10.4688C4.95361 10.7812 4.79736 11.1562 4.79736 11.5938C4.79736 11.9062 4.8807 12.1927 5.04736 12.4531C5.21403 12.7135 5.43278 12.9115 5.70361 13.0469C5.65153 13.3073 5.62549 13.5573 5.62549 13.7969C5.62549 15.0677 6.25049 16.1536 7.50049 17.0547C8.75049 17.9557 10.2557 18.4062 12.0161 18.4062C13.7869 18.4062 15.2974 17.9557 16.5474 17.0547C17.7974 16.1536 18.4224 15.0677 18.4224 13.7969C18.4224 13.5365 18.3911 13.2812 18.3286 13.0312C18.589 12.8958 18.8 12.7005 18.9614 12.4453C19.1229 12.1901 19.2036 11.9062 19.2036 11.5938ZM24.0005 4.5V19.5C24.0005 20.7396 23.5604 21.7995 22.6802 22.6797C21.8 23.5599 20.7401 24 19.5005 24H4.50049C3.2609 24 2.20101 23.5599 1.3208 22.6797C0.440592 21.7995 0.000488281 20.7396 0.000488281 19.5V4.5C0.000488281 3.26042 0.440592 2.20052 1.3208 1.32031C2.20101 0.440104 3.2609 0 4.50049 0H19.5005C20.7401 0 21.8 0.440104 22.6802 1.32031C23.5604 2.20052 24.0005 3.26042 24.0005 4.5Z" fill="white"/>
</g>
<defs>
<clipPath id="clip0_319_4019">
<rect width="24" height="24" fill="white" transform="translate(0.000488281)"/>
</clipPath>
</defs>
</svg>
