<svg width="46" height="61" viewBox="0 0 46 61" fill="none" xmlns="http://www.w3.org/2000/svg">
<path fill-rule="evenodd" clip-rule="evenodd" d="M23.9068 1.47426C24.2536 1.87704 30.3975 9.01292 44.0413 9.01292L45.191 9.01244L45.1915 23.5904C45.1915 23.8258 44.9573 48.7139 23.5271 60.0267L22.9934 60.304L22.4598 60.0267C1.02977 48.7139 0.773438 23.8253 0.773438 23.5904V9.01244H1.92596C15.9922 9.01244 22.0326 1.52032 22.0755 1.45648L22.9932 0.303955L23.8917 1.45696C23.8933 1.45849 23.8983 1.46433 23.9068 1.47426ZM42.9077 23.6545C42.9089 23.6183 42.9096 23.5969 42.9102 23.5908L42.9097 11.2962C31.4483 10.9975 25.1939 6.02439 22.9956 3.86844C20.7977 6.02378 14.5439 10.9975 3.08143 11.2962L3.0819 23.5908C3.0819 23.825 3.35878 46.9208 22.9961 57.6999C42.1244 47.1993 42.8625 25.0136 42.9077 23.6545ZM16.8907 24.21V19.6208L16.8907 19.6211C16.8911 18.1827 17.4625 16.8034 18.4787 15.7857C19.495 14.7684 20.8739 14.1953 22.3123 14.1934H23.6567C25.0942 14.1953 26.4716 14.7675 27.4878 15.7837C28.5041 16.8 29.0763 18.1774 29.0782 19.6148V24.204C29.9892 24.4165 30.8011 24.9306 31.3824 25.6629C31.9636 26.3957 32.28 27.3028 32.28 28.238V38.2124C32.2752 39.3149 31.835 40.3708 31.0555 41.1502C30.276 41.9297 29.2202 42.3694 28.1177 42.3747H17.8722C16.7702 42.3694 15.7144 41.9297 14.9349 41.1502C14.1554 40.3707 13.7152 39.3149 13.71 38.2124V28.2441C13.71 27.3122 14.0235 26.4074 14.6004 25.6756C15.1774 24.9437 15.984 24.4272 16.8907 24.21ZM24.8502 35.0849C25.3443 34.5893 25.6216 33.918 25.6206 33.2181L25.6206 33.2181C25.6177 32.5215 25.3399 31.8545 24.8482 31.3619C24.3561 30.8687 23.6895 30.59 22.9929 30.5862C22.2931 30.5838 21.6213 30.8602 21.1248 31.3538C20.6289 31.8474 20.3497 32.5182 20.3482 33.2181C20.3473 33.918 20.6246 34.5894 21.1191 35.0849C21.6132 35.5799 22.2845 35.8586 22.9844 35.8586C23.6843 35.8586 24.3556 35.5799 24.8502 35.0849ZM26.3248 24.0818V19.6208L26.3247 19.6208C26.3247 18.9133 26.0436 18.2348 25.5433 17.7341C25.043 17.2338 24.3641 16.9527 23.6566 16.9527H22.3121C21.6079 16.9575 20.9337 17.2405 20.4378 17.7408C19.9418 18.2406 19.664 18.9166 19.6654 19.6208H19.665V24.0818H26.3248Z" fill="url(#paint0_linear_319_1017)"/>
<defs>
<linearGradient id="paint0_linear_319_1017" x1="23.0408" y1="-26.696" x2="23.0408" y2="60.304" gradientUnits="userSpaceOnUse">
<stop stop-color="#00F5FF"/>
<stop offset="1" stop-color="#E002F3"/>
</linearGradient>
</defs>
</svg>
