<svg width="24" height="24" viewBox="0 0 24 24" fill="none" xmlns="http://www.w3.org/2000/svg">
<g clip-path="url(#clip0_319_4021)">
<path fill-rule="evenodd" clip-rule="evenodd" d="M24.0005 12C24.0005 18.627 18.6275 24 12.0005 24C5.37349 24 0.000488281 18.627 0.000488281 12C0.000488281 5.373 5.37349 0 12.0005 0C18.6275 0 24.0005 5.373 24.0005 12ZM12.4305 8.859C11.2635 9.344 8.93049 10.349 5.43249 11.873C4.86449 12.099 4.56649 12.32 4.53949 12.536C4.49349 12.902 4.95149 13.046 5.57349 13.241C5.65849 13.268 5.74649 13.295 5.83649 13.325C6.44949 13.524 7.27349 13.757 7.70149 13.766C8.09049 13.774 8.52449 13.614 9.00349 13.286C12.2715 11.079 13.9585 9.964 14.0645 9.94C14.1395 9.923 14.2435 9.901 14.3135 9.964C14.3835 10.026 14.3765 10.144 14.3695 10.176C14.3235 10.369 12.5295 12.038 11.5995 12.902C11.3095 13.171 11.1045 13.362 11.0625 13.406C10.9685 13.503 10.8725 13.596 10.7805 13.685C10.2105 14.233 9.78449 14.645 10.8045 15.317C11.2945 15.64 11.6865 15.907 12.0775 16.173C12.5045 16.464 12.9305 16.754 13.4825 17.116C13.6225 17.208 13.7565 17.303 13.8875 17.396C14.3845 17.751 14.8315 18.069 15.3835 18.019C15.7035 17.989 16.0355 17.688 16.2035 16.789C16.6005 14.663 17.3825 10.059 17.5635 8.161C17.5745 8.00341 17.5678 7.84509 17.5435 7.689C17.5289 7.56293 17.4675 7.44693 17.3715 7.364C17.2285 7.247 17.0065 7.222 16.9065 7.224C16.4555 7.232 15.7635 7.473 12.4305 8.859Z" fill="white"/>
</g>
<defs>
<clipPath id="clip0_319_4021">
<rect width="24" height="24" fill="white" transform="translate(0.000488281)"/>
</clipPath>
</defs>
</svg>
