<svg width="24" height="24" viewBox="0 0 24 24" fill="none" xmlns="http://www.w3.org/2000/svg">
<rect x="0.000488281" width="24" height="24" rx="6" fill="white"/>
<path d="M18.9286 7.98531C18.0815 7.79904 17.3153 7.34922 16.7397 6.7004C16.1642 6.05158 15.809 5.23712 15.7251 4.37389V4H12.7934V15.616C12.794 16.1314 12.6324 16.634 12.3316 17.0525C12.0307 17.471 11.6057 17.7842 11.1169 17.9477C10.6282 18.1113 10.1003 18.1169 9.60815 17.9638C9.116 17.8106 8.68449 17.5066 8.37477 17.0946C8.09728 16.7299 7.92736 16.2949 7.88423 15.8387C7.8411 15.3824 7.92648 14.9233 8.1307 14.5131C8.33493 14.1028 8.64985 13.7579 9.03987 13.5174C9.42989 13.2768 9.87944 13.1502 10.3377 13.1518C10.5911 13.1503 10.8433 13.1876 11.0855 13.2622V10.2881C10.8036 10.2532 10.5196 10.239 10.2357 10.2456C9.18994 10.2736 8.17501 10.6059 7.3152 11.2018C6.4554 11.7978 5.78805 12.6315 5.39486 13.601C5.00167 14.5704 4.89971 15.6335 5.10147 16.66C5.30324 17.6865 5.79996 18.6319 6.53082 19.3804C7.27986 20.1419 8.23838 20.6636 9.28458 20.8792C10.3308 21.0947 11.4175 20.9944 12.4065 20.5909C13.3956 20.1875 14.2424 19.4991 14.8393 18.6133C15.4363 17.7275 15.7564 16.6842 15.7591 15.616V9.6678C16.9414 10.5124 18.3593 10.9642 19.8123 10.9594V8.07028C19.5269 8.07146 19.2421 8.04298 18.9626 7.98531H18.9286Z" fill="#070037"/>
</svg>
